<?xml version="1.0" standalone="no"?>
<!DOCTYPE svg PUBLIC "-//W3C//DTD SVG 1.1//EN" "http://www.w3.org/Graphics/SVG/1.1/DTD/svg11.dtd" >
<svg xmlns="http://www.w3.org/2000/svg" xmlns:xlink="http://www.w3.org/1999/xlink" version="1.1">
<metadata></metadata>
<defs>
<font id="segoe_fluent_iconsregular" horiz-adv-x="2048" >
<font-face units-per-em="2048" ascent="2048" descent="0" />
<missing-glyph horiz-adv-x="600" />
<glyph unicode="&#xd;" horiz-adv-x="0" />
<glyph horiz-adv-x="0" />
<glyph horiz-adv-x="0" />
<glyph unicode=" "  horiz-adv-x="600" />
<glyph unicode="&#x09;" horiz-adv-x="600" />
<glyph unicode="&#xa0;" horiz-adv-x="600" />
<glyph unicode="&#x25fc;" horiz-adv-x="500" d="M0 0z" />
<glyph unicode="&#xe001;" d="M256 960q0 26 19 45t45 19t45 -19l403 -402l915 914q19 19 45 19t45 -19t19 -45t-19 -45l-960 -960q-19 -19 -45 -19t-45 19l-448 448q-19 19 -19 45z" />
<glyph unicode="&#xe0e7;" d="M256 960q0 26 19 45t45 19t45 -19l403 -402l915 914q19 19 45 19t45 -19t19 -45t-19 -45l-960 -960q-19 -19 -45 -19t-45 19l-448 448q-19 19 -19 45z" />
<glyph unicode="&#xe081;" d="M256 960q0 26 19 45t45 19t45 -19l403 -402l915 914q19 19 45 19t45 -19t19 -45t-19 -45l-960 -960q-19 -19 -45 -19t-45 19l-448 448q-19 19 -19 45z" />
<glyph unicode="&#xe008;" d="M256 960q0 26 19 45t45 19t45 -19l403 -402l915 914q19 19 45 19t45 -19t19 -45t-19 -45l-960 -960q-19 -19 -45 -19t-45 19l-448 448q-19 19 -19 45z" />
<glyph unicode="&#xe002;" d="M128 379v1290q0 50 20.5 95.5t55 80t80 55t95.5 20.5h1290q50 0 95.5 -20.5t80 -55t55 -80t20.5 -95.5v-1290q0 -50 -20.5 -95.5t-55 -80t-80 -55t-95.5 -20.5h-1290q-50 0 -95.5 20.5t-80 55t-55 80t-20.5 95.5z" />
<glyph unicode="&#xe009;" d="M128 379v1290q0 50 20.5 95.5t55 80t80 55t95.5 20.5h1290q50 0 95.5 -20.5t80 -55t55 -80t20.5 -95.5v-1290q0 -50 -20.5 -95.5t-55 -80t-80 -55t-95.5 -20.5h-1290q-50 0 -95.5 20.5t-80 55t-55 80t-20.5 95.5z" />
<glyph unicode="&#xe003;" d="M0 251v1546q0 50 20.5 95.5t55 80t80 55t95.5 20.5h1546q50 0 95.5 -20.5t80 -55t55 -80t20.5 -95.5v-1546q0 -50 -20.5 -95.5t-55 -80t-80 -55t-95.5 -20.5h-1546q-50 0 -95.5 20.5t-80 55t-55 80t-20.5 95.5zM128 256q0 -27 10 -50.5t27 -40.5t40.5 -27t50.5 -10h1536 q27 0 50 10t40.5 27.5t27.5 40.5t10 50v1536q0 26 -10 49.5t-27.5 41t-41 27.5t-49.5 10h-1536q-27 0 -50 -10t-40.5 -27.5t-27.5 -40.5t-10 -50v-1536z" />
<glyph unicode="&#xe004;" d="M256 1024q0 26 19 45t45 19h1408q26 0 45 -19t19 -45t-19 -45t-45 -19h-1408q-26 0 -45 19t-19 45z" />
<glyph unicode="&#xe005;" d="M0 205v1638q0 42 16 79.5t44 65.5t65.5 44t79.5 16h1638q42 0 79.5 -16t65.5 -44t44 -65.5t16 -79.5v-1638q0 -42 -16 -79.5t-44 -65.5t-65.5 -44t-79.5 -16h-1638q-42 0 -79.5 16t-65.5 44t-44 65.5t-16 79.5zM368 1088q0 -15 6 -30.5t17 -26.5l384 -384 q11 -11 26.5 -17t30.5 -6t30.5 6t26.5 17l768 768q23 23 23 57t-23 57t-57 23t-57 -23l-711 -712l-327 328q-23 23 -57 23t-57 -23t-23 -57z" />
<glyph unicode="&#xe006;" d="M0 1363q0 115 43 216t117.5 177t175 120t216.5 44q112 0 213.5 -43t180.5 -122q20 -20 38.5 -39t38.5 -39q19 20 37.5 39t38.5 38q78 78 179 120.5t212 42.5q116 0 218 -44.5t177.5 -121t119 -178.5t43.5 -218q0 -110 -41.5 -213.5t-119.5 -181.5l-799 -807 q-25 -25 -61 -25q-35 0 -60 25l-804 812q-79 80 -121 183t-42 215zM128 1363q0 -86 33 -166.5t93 -141.5l773 -781l769 776q60 61 92 140.5t32 164.5q0 89 -33.5 168t-92 138t-136.5 93.5t-168 34.5q-85 0 -162.5 -32.5t-137.5 -92.5q-19 -19 -37.5 -39t-38.5 -38 q-20 -19 -41.5 -28t-49.5 -9q-27 0 -49 9.5t-42 27.5q-20 19 -38.5 38.5t-38.5 39.5q-62 61 -138.5 94t-164.5 33q-89 0 -166.5 -34t-134.5 -92t-90 -136.5t-33 -166.5z" />
<glyph unicode="&#xe007;" d="M0 1363q0 115 43 216t117.5 177t175 120t216.5 44q15 0 40.5 -1.5t54 -6t58 -12t53.5 -19t39 -27t15 -36.5q0 -16 -7 -29l-178 -335q-7 -13 -7 -30q0 -13 5 -25.5t15 -21.5l362 -338q11 -9 11 -24q0 -12 -9 -34t-23 -49t-30 -56.5t-30 -56t-23 -47.5t-9 -32q0 -7 5 -11.5 t12 -4.5t12 6l203 249q7 8 10.5 19t3.5 22q0 25 -17 44l-291 303q-18 18 -18 45q0 15 4 23t12 19q17 22 35.5 41.5t36.5 39.5q34 38 67.5 76t68.5 76q48 52 98 95t105 73t117.5 46.5t136.5 16.5q77 0 148.5 -20.5t133.5 -57t113 -88.5t87 -114.5t56 -134t20 -148.5 q0 -110 -41.5 -213.5t-119.5 -181.5l-799 -807q-25 -25 -61 -25q-35 0 -60 25l-804 812q-78 79 -120.5 182.5t-42.5 215.5z" />
<glyph unicode="&#xe00a;" d="M2 1238q0 23 16 42t39 23l628 91l282 570q8 16 23.5 25.5t32.5 9.5q18 0 34 -9t24 -26l282 -570l628 -91q24 -4 39.5 -22t15.5 -42q0 -28 -19 -46l-455 -443l107 -626q1 -4 1 -11q0 -26 -19 -45t-45 -19q-17 0 -30 7l-562 296l-562 -296q-14 -8 -30 -8q-26 0 -45 19.5 t-19 45.5q0 7 1 11l107 626l-455 443q-19 19 -19 45z" />
<glyph unicode="&#xe249;" d="M2 1238q0 23 16 42t39 23l628 91l282 570q8 16 23.5 25.5t32.5 9.5q18 0 34 -9t24 -26l282 -570l628 -91q24 -4 39.5 -22t15.5 -42q0 -28 -19 -46l-455 -443l107 -626q1 -4 1 -11q0 -26 -19 -45t-45 -19q-17 0 -30 7l-562 296l-562 -296q-14 -8 -30 -8q-26 0 -45 19.5 t-19 45.5q0 7 1 11l107 626l-455 443q-19 19 -19 45z" />
<glyph unicode="&#xe1cf;" d="M2 1238q0 23 16 42t39 23l628 91l282 570q8 16 23.5 25.5t32.5 9.5q18 0 34 -9t24 -26l282 -570l628 -91q24 -4 39.5 -22t15.5 -42q0 -28 -19 -46l-455 -443l107 -626q1 -4 1 -11q0 -26 -19 -45t-45 -19q-17 0 -30 7l-562 296l-562 -296q-14 -8 -30 -8q-26 0 -45 19.5 t-19 45.5q0 7 1 11l107 626l-455 443q-19 19 -19 45z" />
<glyph unicode="&#xe113;" d="M2 1238q0 23 16 42t39 23l628 91l282 570q8 16 23.5 25.5t32.5 9.5q18 0 34 -9t24 -26l282 -570l628 -91q24 -4 39.5 -22t15.5 -42q0 -28 -19 -46l-455 -443l107 -626q1 -4 1 -11q0 -26 -19 -45t-45 -19q-17 0 -30 7l-562 296l-562 -296q-14 -8 -30 -8q-26 0 -45 19.5 t-19 45.5q0 7 1 11l107 626l-455 443q-19 19 -19 45z" />
<glyph unicode="&#xe0b5;" d="M2 1238q0 23 16 42t39 23l628 91l282 570q8 16 23.5 25.5t32.5 9.5q18 0 34 -9t24 -26l282 -570l628 -91q24 -4 39.5 -22t15.5 -42q0 -28 -19 -46l-455 -443l107 -626q1 -4 1 -11q0 -26 -19 -45t-45 -19q-17 0 -30 7l-562 296l-562 -296q-14 -8 -30 -8q-26 0 -45 19.5 t-19 45.5q0 7 1 11l107 626l-455 443q-19 19 -19 45z" />
<glyph unicode="&#xe0b4;" d="M2 1238q0 23 16 42t39 23l628 91l282 570q8 16 23.5 25.5t32.5 9.5q18 0 34 -9t24 -26l282 -570l628 -91q24 -4 39.5 -22t15.5 -42q0 -28 -19 -46l-455 -443l107 -626q1 -4 1 -11q0 -26 -19 -45t-45 -19q-17 0 -30 7l-562 296l-562 -296q-14 -8 -30 -8q-26 0 -45 19.5 t-19 45.5q0 7 1 11l107 626l-455 443q-19 19 -19 45z" />
<glyph unicode="&#xe082;" d="M2 1238q0 23 16 42t39 23l628 91l282 570q8 16 23.5 25.5t32.5 9.5q18 0 34 -9t24 -26l282 -570l628 -91q24 -4 39.5 -22t15.5 -42q0 -28 -19 -46l-455 -443l107 -626q1 -4 1 -11q0 -26 -19 -45t-45 -19q-17 0 -30 7l-562 296l-562 -296q-14 -8 -30 -8q-26 0 -45 19.5 t-19 45.5q0 7 1 11l107 626l-455 443q-19 19 -19 45z" />
<glyph unicode="&#xe00b;" d="M0 1363q0 115 43 216t117.5 177t175 120t216.5 44q113 0 213.5 -43t180.5 -122q20 -20 38.5 -39t38.5 -39q19 20 37.5 39t38.5 38q81 78 179.5 120.5t211.5 42.5q116 0 218 -44.5t177.5 -121t119 -178.5t43.5 -218q0 -110 -41.5 -213.5t-119.5 -181.5l-799 -807 q-25 -25 -61 -25q-35 0 -60 25l-804 812q-78 79 -120.5 182.5t-42.5 215.5z" />
<glyph unicode="&#xe0a5;" d="M0 1363q0 115 43 216t117.5 177t175 120t216.5 44q113 0 213.5 -43t180.5 -122q20 -20 38.5 -39t38.5 -39q19 20 37.5 39t38.5 38q81 78 179.5 120.5t211.5 42.5q116 0 218 -44.5t177.5 -121t119 -178.5t43.5 -218q0 -110 -41.5 -213.5t-119.5 -181.5l-799 -807 q-25 -25 -61 -25q-35 0 -60 25l-804 812q-78 79 -120.5 182.5t-42.5 215.5z" />
<glyph unicode="&#xe00e;" d="M576 1024q0 26 19 45l704 704q19 19 45 19t45 -19t19 -45t-19 -45l-658 -659l658 -659q19 -19 19 -45t-19 -45t-45 -19t-45 19l-704 704q-19 19 -19 45z" />
<glyph unicode="&#xe0e2;" d="M576 1024q0 26 19 45l704 704q19 19 45 19t45 -19t19 -45t-19 -45l-658 -659l658 -659q19 -19 19 -45t-19 -45t-45 -19t-45 19l-704 704q-19 19 -19 45z" />
<glyph unicode="&#xe09e;" d="M576 1024q0 26 19 45l704 704q19 19 45 19t45 -19t19 -45t-19 -45l-658 -659l658 -659q19 -19 19 -45t-19 -45t-45 -19t-45 19l-704 704q-19 19 -19 45z" />
<glyph unicode="&#xe09a;" d="M576 1024q0 26 19 45l704 704q19 19 45 19t45 -19t19 -45t-19 -45l-658 -659l658 -659q19 -19 19 -45t-19 -45t-45 -19t-45 19l-704 704q-19 19 -19 45z" />
<glyph unicode="&#xe096;" d="M576 1024q0 26 19 45l704 704q19 19 45 19t45 -19t19 -45t-19 -45l-658 -659l658 -659q19 -19 19 -45t-19 -45t-45 -19t-45 19l-704 704q-19 19 -19 45z" />
<glyph unicode="&#xe016;" d="M576 1024q0 26 19 45l704 704q19 19 45 19t45 -19t19 -45t-19 -45l-658 -659l658 -659q19 -19 19 -45t-19 -45t-45 -19t-45 19l-704 704q-19 19 -19 45z" />
<glyph unicode="&#xe012;" d="M576 1024q0 26 19 45l704 704q19 19 45 19t45 -19t19 -45t-19 -45l-658 -659l658 -659q19 -19 19 -45t-19 -45t-45 -19t-45 19l-704 704q-19 19 -19 45z" />
<glyph unicode="&#xe00f;" d="M640 320q0 26 19 45l658 659l-658 659q-19 19 -19 45t19 45t45 19t45 -19l704 -704q19 -19 19 -45t-19 -45l-704 -704q-19 -19 -45 -19t-45 19t-19 45z" />
<glyph unicode="&#xe0e3;" d="M640 320q0 26 19 45l658 659l-658 659q-19 19 -19 45t19 45t45 19t45 -19l704 -704q19 -19 19 -45t-19 -45l-704 -704q-19 -19 -45 -19t-45 19t-19 45z" />
<glyph unicode="&#xe09f;" d="M640 320q0 26 19 45l658 659l-658 659q-19 19 -19 45t19 45t45 19t45 -19l704 -704q19 -19 19 -45t-19 -45l-704 -704q-19 -19 -45 -19t-45 19t-19 45z" />
<glyph unicode="&#xe09b;" d="M640 320q0 26 19 45l658 659l-658 659q-19 19 -19 45t19 45t45 19t45 -19l704 -704q19 -19 19 -45t-19 -45l-704 -704q-19 -19 -45 -19t-45 19t-19 45z" />
<glyph unicode="&#xe097;" d="M640 320q0 26 19 45l658 659l-658 659q-19 19 -19 45t19 45t45 19t45 -19l704 -704q19 -19 19 -45t-19 -45l-704 -704q-19 -19 -45 -19t-45 19t-19 45z" />
<glyph unicode="&#xe017;" d="M640 320q0 26 19 45l658 659l-658 659q-19 19 -19 45t19 45t45 19t45 -19l704 -704q19 -19 19 -45t-19 -45l-704 -704q-19 -19 -45 -19t-45 19t-19 45z" />
<glyph unicode="&#xe013;" d="M640 320q0 26 19 45l658 659l-658 659q-19 19 -19 45t19 45t45 19t45 -19l704 -704q19 -19 19 -45t-19 -45l-704 -704q-19 -19 -45 -19t-45 19t-19 45z" />
<glyph unicode="&#xe010;" d="M256 704q0 26 19 45l704 704q19 19 45 19t45 -19l704 -704q19 -19 19 -45t-19 -45t-45 -19t-45 19l-659 658l-659 -658q-19 -19 -45 -19t-45 19t-19 45z" />
<glyph unicode="&#xe0e4;" d="M256 704q0 26 19 45l704 704q19 19 45 19t45 -19l704 -704q19 -19 19 -45t-19 -45t-45 -19t-45 19l-659 658l-659 -658q-19 -19 -45 -19t-45 19t-19 45z" />
<glyph unicode="&#xe0a0;" d="M256 704q0 26 19 45l704 704q19 19 45 19t45 -19l704 -704q19 -19 19 -45t-19 -45t-45 -19t-45 19l-659 658l-659 -658q-19 -19 -45 -19t-45 19t-19 45z" />
<glyph unicode="&#xe09c;" d="M256 704q0 26 19 45l704 704q19 19 45 19t45 -19l704 -704q19 -19 19 -45t-19 -45t-45 -19t-45 19l-659 658l-659 -658q-19 -19 -45 -19t-45 19t-19 45z" />
<glyph unicode="&#xe098;" d="M256 704q0 26 19 45l704 704q19 19 45 19t45 -19l704 -704q19 -19 19 -45t-19 -45t-45 -19t-45 19l-659 658l-659 -658q-19 -19 -45 -19t-45 19t-19 45z" />
<glyph unicode="&#xe018;" d="M256 704q0 26 19 45l704 704q19 19 45 19t45 -19l704 -704q19 -19 19 -45t-19 -45t-45 -19t-45 19l-659 658l-659 -658q-19 -19 -45 -19t-45 19t-19 45z" />
<glyph unicode="&#xe014;" d="M256 704q0 26 19 45l704 704q19 19 45 19t45 -19l704 -704q19 -19 19 -45t-19 -45t-45 -19t-45 19l-659 658l-659 -658q-19 -19 -45 -19t-45 19t-19 45z" />
<glyph unicode="&#xe011;" d="M256 1344q0 26 19 45t45 19t45 -19l659 -658l659 658q19 19 45 19t45 -19t19 -45t-19 -45l-704 -704q-19 -19 -45 -19t-45 19l-704 704q-19 19 -19 45z" />
<glyph unicode="&#xe0e5;" d="M256 1344q0 26 19 45t45 19t45 -19l659 -658l659 658q19 19 45 19t45 -19t19 -45t-19 -45l-704 -704q-19 -19 -45 -19t-45 19l-704 704q-19 19 -19 45z" />
<glyph unicode="&#xe0a1;" d="M256 1344q0 26 19 45t45 19t45 -19l659 -658l659 658q19 19 45 19t45 -19t19 -45t-19 -45l-704 -704q-19 -19 -45 -19t-45 19l-704 704q-19 19 -19 45z" />
<glyph unicode="&#xe09d;" d="M256 1344q0 26 19 45t45 19t45 -19l659 -658l659 658q19 19 45 19t45 -19t19 -45t-19 -45l-704 -704q-19 -19 -45 -19t-45 19l-704 704q-19 19 -19 45z" />
<glyph unicode="&#xe099;" d="M256 1344q0 26 19 45t45 19t45 -19l659 -658l659 658q19 19 45 19t45 -19t19 -45t-19 -45l-704 -704q-19 -19 -45 -19t-45 19l-704 704q-19 19 -19 45z" />
<glyph unicode="&#xe019;" d="M256 1344q0 26 19 45t45 19t45 -19l659 -658l659 658q19 19 45 19t45 -19t19 -45t-19 -45l-704 -704q-19 -19 -45 -19t-45 19l-704 704q-19 19 -19 45z" />
<glyph unicode="&#xe015;" d="M256 1344q0 26 19 45t45 19t45 -19l659 -658l659 658q19 19 45 19t45 -19t19 -45t-19 -45l-704 -704q-19 -19 -45 -19t-45 19l-704 704q-19 19 -19 45z" />
<glyph unicode="&#xe052;" d="M30 830q0 6 2 16q31 116 81.5 222t119.5 197t154.5 164.5t185.5 126t213.5 80.5t237.5 28q144 0 277.5 -41t249.5 -115t211 -177.5t161 -229.5q10 -19 26 -56t31.5 -78t26.5 -78.5t11 -56.5q0 -26 -19 -45t-45 -19t-39 13.5t-23 35.5q-11 23 -16 48t-13 49 q-23 73 -62.5 144t-87.5 131q-64 82 -142 146.5t-167 109t-187 68t-203 23.5q-124 0 -239 -37t-215 -102.5t-182 -156t-139 -197.5q-7 -13 -19 -39t-24 -55t-20.5 -55t-8.5 -39q0 -15 -5.5 -30.5t-15 -28t-23 -21t-29.5 -8.5q-26 0 -45 18t-19 45zM576 840q0 90 36.5 170 t98 140t142.5 95t171 35q92 0 173.5 -35.5t142.5 -96.5t96.5 -142.5t35.5 -173.5t-35.5 -173.5t-96.5 -142.5t-142.5 -96.5t-173.5 -35.5q-95 0 -177 36t-142 98t-94.5 145t-34.5 177zM704 832q0 -67 25 -125t68.5 -101.5t101.5 -68.5t125 -25q69 0 127.5 25.5t101 70 t67 104t24.5 127.5q0 65 -26 122t-70 99.5t-102 67t-122 24.5q-67 0 -125 -25t-101.5 -68.5t-68.5 -101.5t-25 -125z" />
<glyph unicode="&#xe7b3;" d="M30 830q0 6 2 16q31 116 81.5 222t119.5 197t154.5 164.5t185.5 126t213.5 80.5t237.5 28q144 0 277.5 -41t249.5 -115t211 -177.5t161 -229.5q10 -19 26 -56t31.5 -78t26.5 -78.5t11 -56.5q0 -26 -19 -45t-45 -19t-39 13.5t-23 35.5q-11 23 -16 48t-13 49 q-23 73 -62.5 144t-87.5 131q-64 82 -142 146.5t-167 109t-187 68t-203 23.5q-124 0 -239 -37t-215 -102.5t-182 -156t-139 -197.5q-7 -13 -19 -39t-24 -55t-20.5 -55t-8.5 -39q0 -15 -5.5 -30.5t-15 -28t-23 -21t-29.5 -8.5q-26 0 -45 18t-19 45zM576 840q0 90 36.5 170 t98 140t142.5 95t171 35q92 0 173.5 -35.5t142.5 -96.5t96.5 -142.5t35.5 -173.5t-35.5 -173.5t-96.5 -142.5t-142.5 -96.5t-173.5 -35.5q-95 0 -177 36t-142 98t-94.5 145t-34.5 177zM704 832q0 -67 25 -125t68.5 -101.5t101.5 -68.5t125 -25q69 0 127.5 25.5t101 70 t67 104t24.5 127.5q0 65 -26 122t-70 99.5t-102 67t-122 24.5q-67 0 -125 -25t-101.5 -68.5t-68.5 -101.5t-25 -125z" />
<glyph unicode="&#xe18b;" d="M30 830q0 6 2 16q31 116 81.5 222t119.5 197t154.5 164.5t185.5 126t213.5 80.5t237.5 28q144 0 277.5 -41t249.5 -115t211 -177.5t161 -229.5q10 -19 26 -56t31.5 -78t26.5 -78.5t11 -56.5q0 -26 -19 -45t-45 -19t-39 13.5t-23 35.5q-11 23 -16 48t-13 49 q-23 73 -62.5 144t-87.5 131q-64 82 -142 146.5t-167 109t-187 68t-203 23.5q-124 0 -239 -37t-215 -102.5t-182 -156t-139 -197.5q-7 -13 -19 -39t-24 -55t-20.5 -55t-8.5 -39q0 -15 -5.5 -30.5t-15 -28t-23 -21t-29.5 -8.5q-26 0 -45 18t-19 45zM576 840q0 90 36.5 170 t98 140t142.5 95t171 35q92 0 173.5 -35.5t142.5 -96.5t96.5 -142.5t35.5 -173.5t-35.5 -173.5t-96.5 -142.5t-142.5 -96.5t-173.5 -35.5q-95 0 -177 36t-142 98t-94.5 145t-34.5 177zM704 832q0 -67 25 -125t68.5 -101.5t101.5 -68.5t125 -25q69 0 127.5 25.5t101 70 t67 104t24.5 127.5q0 65 -26 122t-70 99.5t-102 67t-122 24.5q-67 0 -125 -25t-101.5 -68.5t-68.5 -101.5t-25 -125z" />
<glyph unicode="&#xe07f;" d="M128 1536q0 46 17.5 87t48 71.5t71 48t87.5 17.5q41 0 80 -15l285 -109q-7 24 -10 49t-3 50q0 65 26 122t70 99.5t102 67t122 24.5t122 -24.5t102 -67t70 -99.5t26 -122q0 -25 -3 -50t-11 -49l286 109q39 15 80 15q46 0 87 -17.5t71.5 -48.5t48 -72t17.5 -87 q0 -34 -10.5 -66.5t-29.5 -60t-45.5 -48.5t-58.5 -33l-368 -140v-307q0 -3 14 -42t35.5 -97.5t47 -128t49 -133t41 -112.5t23.5 -66q6 -19 10 -38t4 -39q0 -47 -17.5 -87.5t-48.5 -71t-72 -48t-87 -17.5q-35 0 -67.5 10.5t-60.5 30t-49 47t-33 60.5l-173 477l-174 -477 q-12 -34 -33 -61t-48.5 -46.5t-60 -30t-68.5 -10.5q-46 0 -87 17.5t-71.5 48t-48 71.5t-17.5 87q0 20 4 39t10 38q4 13 15.5 44t27 73.5t34 92.5t37 100.5t36 98t31 84.5t21.5 60t8 25v308l-368 140q-33 12 -59.5 33.5t-45 48.5t-29 59.5t-10.5 67.5zM256 1536 q0 -30 16.5 -54.5t45.5 -35.5l409 -155q19 -7 30 -23.5t11 -36.5v-363q0 -13 -4 -22l-214 -589q-6 -17 -6 -33q0 -40 28 -68t68 -28q30 0 54.5 17t35.5 46l174 477q14 40 45.5 62.5t74.5 22.5t74.5 -22.5t45.5 -62.5l174 -477q11 -29 35 -46t55 -17q40 0 68 28t28 68 q0 16 -6 33l-214 589q-4 9 -4 22v363q0 20 11 36.5t30 23.5l409 155q29 11 45.5 35.5t16.5 55.5q0 19 -7.5 36.5t-21 30.5t-31 20.5t-36.5 7.5q-18 0 -34 -6l-536 -204q-24 -9 -50 -14t-52 -5q-51 0 -103 19l-535 204q-17 6 -34 6q-41 0 -68.5 -27.5t-27.5 -68.5zM832 1728 q0 -39 15 -74t41.5 -61.5t61.5 -41.5t74 -15t74 15t61.5 41.5t41.5 61.5t15 74t-15 74t-41.5 61.5t-61.5 41.5t-74 15t-74 -15t-61.5 -41.5t-41.5 -61.5t-15 -74z" />
<glyph unicode="&#xe087;" d="M0 635v906q0 50 20.5 95.5t55 80t80 55t95.5 20.5h1546q50 0 95.5 -20.5t80 -55t55 -80t20.5 -95.5v-906q0 -50 -20.5 -95.5t-55 -80t-80 -55t-95.5 -20.5h-1546q-50 0 -95.5 20.5t-80 55t-55 80t-20.5 95.5zM128 640q0 -27 10 -50.5t27 -40.5t40.5 -27t50.5 -10h1536 q27 0 50 10t40.5 27.5t27.5 40.5t10 50v896q0 26 -10 49.5t-27.5 41t-41 27.5t-49.5 10h-1536q-27 0 -50 -10t-40.5 -27.5t-27.5 -40.5t-10 -50v-896zM320 1376q0 40 28 68t68 28t68 -28t28 -68t-28 -68t-68 -28t-68 28t-28 68zM384 704q0 26 19 45t45 19h1152q26 0 45 -19 t19 -45t-19 -45t-45 -19h-1152q-26 0 -45 19t-19 45zM576 992q0 40 28 68t68 28t68 -28t28 -68t-28 -68t-68 -28t-68 28t-28 68zM704 1376q0 40 28 68t68 28t68 -28t28 -68t-28 -68t-68 -28t-68 28t-28 68zM960 992q0 40 28 68t68 28t68 -28t28 -68t-28 -68t-68 -28t-68 28 t-28 68zM1088 1376q0 40 28 68t68 28t68 -28t28 -68t-28 -68t-68 -28t-68 28t-28 68zM1344 992q0 40 28 68t68 28t68 -28t28 -68t-28 -68t-68 -28t-68 28t-28 68zM1472 1376q0 40 28 68t68 28t68 -28t28 -68t-28 -68t-68 -28t-68 28t-28 68z" />
<glyph unicode="&#xe08f;" d="M0 635v906q0 50 20.5 95.5t55 80t80 55t95.5 20.5h1546q50 0 95.5 -20.5t80 -55t55 -80t20.5 -95.5v-906q0 -50 -20.5 -95.5t-55 -80t-80 -55t-95.5 -20.5h-1546q-50 0 -95.5 20.5t-80 55t-55 80t-20.5 95.5zM128 640q0 -27 10 -50.5t27 -40.5t40.5 -27t50.5 -10h1536 q27 0 50 10t40.5 27.5t27.5 40.5t10 50v896q0 26 -10 49.5t-27.5 41t-41 27.5t-49.5 10h-1536q-27 0 -50 -10t-40.5 -27.5t-27.5 -40.5t-10 -50v-896zM320 704q0 26 19 45t45 19h384q26 0 45 -19t19 -45t-19 -45t-45 -19h-384q-26 0 -45 19t-19 45zM320 992q0 40 28 68 t68 28t68 -28t28 -68t-28 -68t-68 -28t-68 28t-28 68zM320 1376q0 40 28 68t68 28t68 -28t28 -68t-28 -68t-68 -28t-68 28t-28 68zM640 992q0 40 28 68t68 28t68 -28t28 -68t-28 -68t-68 -28t-68 28t-28 68zM640 1376q0 40 28 68t68 28t68 -28t28 -68t-28 -68t-68 -28 t-68 28t-28 68zM1216 704q0 26 19 45t45 19h384q26 0 45 -19t19 -45t-19 -45t-45 -19h-384q-26 0 -45 19t-19 45zM1216 992q0 40 28 68t68 28t68 -28t28 -68t-28 -68t-68 -28t-68 28t-28 68zM1216 1376q0 40 28 68t68 28t68 -28t28 -68t-28 -68t-68 -28t-68 28t-28 68z M1536 992q0 40 28 68t68 28t68 -28t28 -68t-28 -68t-68 -28t-68 28t-28 68zM1536 1376q0 40 28 68t68 28t68 -28t28 -68t-28 -68t-68 -28t-68 28t-28 68z" />
<glyph unicode="&#xe094;" d="M128 192q0 26 19 45l528 528q-79 94 -121 210.5t-42 240.5q0 97 25 187.5t71 168.5t110 142t142 110t168 71t188 25q97 0 187 -25t168.5 -71t142.5 -110t110 -142.5t71 -168.5t25 -187t-25 -187t-71 -168.5t-110 -142.5t-142.5 -110t-168.5 -71t-187 -25 q-124 0 -240.5 42t-210.5 121l-528 -528q-19 -19 -45 -19t-45 19t-19 45zM640 1216q0 -120 45 -225t123 -183t183 -123t225 -45t225 45t183 123t123 183t45 225q0 119 -45.5 224t-123.5 183t-183 123.5t-224 45.5t-224 -45.5t-183 -123.5t-123.5 -183t-45.5 -224z" />
<glyph unicode="&#xe11a;" d="M128 192q0 26 19 45l528 528q-79 94 -121 210.5t-42 240.5q0 97 25 187.5t71 168.5t110 142t142 110t168 71t188 25q97 0 187 -25t168.5 -71t142.5 -110t110 -142.5t71 -168.5t25 -187t-25 -187t-71 -168.5t-110 -142.5t-142.5 -110t-168.5 -71t-187 -25 q-124 0 -240.5 42t-210.5 121l-528 -528q-19 -19 -45 -19t-45 19t-19 45zM640 1216q0 -120 45 -225t123 -183t183 -123t225 -45t225 45t183 123t123 183t45 225q0 119 -45.5 224t-123.5 183t-183 123.5t-224 45.5t-224 -45.5t-183 -123.5t-123.5 -183t-45.5 -224z" />
<glyph unicode="&#xe0a2;" d="M0 251v1546q0 50 20.5 95.5t55 80t80 55t95.5 20.5h1546q50 0 95.5 -20.5t80 -55t55 -80t20.5 -95.5v-1546q0 -50 -20.5 -95.5t-55 -80t-80 -55t-95.5 -20.5h-1546q-50 0 -95.5 20.5t-80 55t-55 80t-20.5 95.5zM128 256q0 -27 10 -50.5t27 -40.5t40.5 -27t50.5 -10h1536 q27 0 50 10t40.5 27.5t27.5 40.5t10 50v1536q0 26 -10 49.5t-27.5 41t-41 27.5t-49.5 10h-1536q-27 0 -50 -10t-40.5 -27.5t-27.5 -40.5t-10 -50v-1536zM384 1088q0 26 19 45t45 19t45 -19l339 -338l723 722q19 19 45 19t45 -19t19 -45t-19 -45l-768 -768q-19 -19 -45 -19 t-45 19l-384 384q-19 19 -19 45z" />
<glyph unicode="&#xe0a6;" d="M0 1088q0 15 5.5 26t16.5 22l893 893q19 19 45 19t45 -19t19 -45t-19 -45l-786 -787h1765q26 0 45 -19t19 -45t-19 -45t-45 -19h-1765l786 -787q19 -19 19 -45t-19 -45t-45 -19t-45 19l-893 893q-11 11 -16.5 22t-5.5 26z" />
<glyph unicode="&#xe72b;" d="M0 1088q0 15 5.5 26t16.5 22l893 893q19 19 45 19t45 -19t19 -45t-19 -45l-786 -787h1765q26 0 45 -19t19 -45t-19 -45t-45 -19h-1765l786 -787q19 -19 19 -45t-19 -45t-45 -19t-45 19l-893 893q-11 11 -16.5 22t-5.5 26z" />
<glyph unicode="&#xe112;" d="M0 1088q0 15 5.5 26t16.5 22l893 893q19 19 45 19t45 -19t19 -45t-19 -45l-786 -787h1765q26 0 45 -19t19 -45t-19 -45t-45 -19h-1765l786 -787q19 -19 19 -45t-19 -45t-45 -19t-45 19l-893 893q-11 11 -16.5 22t-5.5 26z" />
<glyph unicode="&#xe0d5;" d="M0 1088q0 15 5.5 26t16.5 22l893 893q19 19 45 19t45 -19t19 -45t-19 -45l-786 -787h1765q26 0 45 -19t19 -45t-19 -45t-45 -19h-1765l786 -787q19 -19 19 -45t-19 -45t-45 -19t-45 19l-893 893q-11 11 -16.5 22t-5.5 26z" />
<glyph unicode="&#xe0c4;" d="M0 1088q0 15 5.5 26t16.5 22l893 893q19 19 45 19t45 -19t19 -45t-19 -45l-786 -787h1765q26 0 45 -19t19 -45t-19 -45t-45 -19h-1765l786 -787q19 -19 19 -45t-19 -45t-45 -19t-45 19l-893 893q-11 11 -16.5 22t-5.5 26z" />
<glyph unicode="&#xe0ab;" d="M0 1088q0 26 19 45t45 19h1765l-786 787q-19 19 -19 45t19 45t45 19t45 -19l893 -893q11 -11 16.5 -22t5.5 -26t-5.5 -26t-16.5 -22l-893 -893q-19 -19 -45 -19t-45 19t-19 45t19 45l786 787h-1765q-26 0 -45 19t-19 45z" />
<glyph unicode="&#xe72a;" d="M0 1088q0 26 19 45t45 19h1765l-786 787q-19 19 -19 45t19 45t45 19t45 -19l893 -893q11 -11 16.5 -22t5.5 -26t-5.5 -26t-16.5 -22l-893 -893q-19 -19 -45 -19t-45 19t-19 45t19 45l786 787h-1765q-26 0 -45 19t-19 45z" />
<glyph unicode="&#xe111;" d="M0 1088q0 26 19 45t45 19h1765l-786 787q-19 19 -19 45t19 45t45 19t45 -19l893 -893q11 -11 16.5 -22t5.5 -26t-5.5 -26t-16.5 -22l-893 -893q-19 -19 -45 -19t-45 19t-19 45t19 45l786 787h-1765q-26 0 -45 19t-19 45z" />
<glyph unicode="&#xe0ae;" d="M0 1088q0 26 19 45t45 19h1765l-786 787q-19 19 -19 45t19 45t45 19t45 -19l893 -893q11 -11 16.5 -22t5.5 -26t-5.5 -26t-16.5 -22l-893 -893q-19 -19 -45 -19t-45 19t-19 45t19 45l786 787h-1765q-26 0 -45 19t-19 45z" />
<glyph unicode="&#xe0ad;" d="M0 1088q0 26 19 45t45 19h1765l-786 787q-19 19 -19 45t19 45t45 19t45 -19l893 -893q11 -11 16.5 -22t5.5 -26t-5.5 -26t-16.5 -22l-893 -893q-19 -19 -45 -19t-45 19t-19 45t19 45l786 787h-1765q-26 0 -45 19t-19 45z" />
<glyph unicode="&#xe0b8;" d="M0 683v682h2048v-682h-2048z" />
<glyph unicode="&#xe100;" d="M128 192v1664q0 26 19 45t45 19t45 -19t19 -45v-1664q0 -26 -19 -45t-45 -19t-45 19t-19 45zM511 1024q0 41 19 76t53 58l1089 717q41 27 88 27q32 0 61 -13t51 -35t35 -51t13 -61v-1436q0 -33 -13 -62t-34.5 -50.5t-50.5 -34.5t-62 -13q-48 0 -88 27l-1089 717 q-34 22 -53 57.5t-19 76.5zM639 1024q0 -8 3.5 -15t10.5 -12l1089 -717q10 -6 20 -6q12 0 21 10t9 22v1436q0 13 -9.5 22.5t-22.5 9.5q-9 0 -18 -6l-1089 -717q-14 -9 -14 -27z" />
<glyph unicode="&#xe101;" d="M128 306v1436q0 33 13 62.5t34.5 51t51 34t62.5 12.5q46 0 87 -27l1089 -717q34 -22 53 -57.5t19 -76.5t-19 -76.5t-53 -57.5l-1089 -717q-20 -13 -42.5 -20t-46.5 -7q-33 0 -61.5 13t-50.5 34.5t-34.5 50.5t-12.5 62zM256 306q0 -14 9.5 -23t23.5 -9q8 0 16 5l1090 718 q7 5 10.5 12t3.5 15t-3.5 15t-10.5 12l-1089 718q-3 2 -8.5 3.5t-9.5 1.5q-13 0 -22.5 -9.5t-9.5 -22.5v-1436zM1792 192v1664q0 26 19 45t45 19t45 -19t19 -45v-1664q0 -26 -19 -45t-45 -19t-45 19t-19 45z" />
<glyph unicode="&#xe102;" d="M256 314v1420q0 40 15 75t41 61t61 41t75 15q24 0 48 -6t45 -18l1274 -710q46 -26 72 -71t26 -97q0 -53 -25.5 -97.5t-72.5 -70.5l-1273 -710q-21 -12 -45 -18t-48 -6q-40 0 -75 15t-61.5 41t-41.5 61t-15 75zM384 314q0 -26 19 -45t45 -19q17 0 31 8l1273 710 q15 8 24 23.5t9 32.5t-9 32.5t-24 23.5l-1273 710q-14 8 -31 8q-26 0 -45 -19t-19 -45v-1420z" />
<glyph unicode="&#xe103;" d="M128 320v1408q0 39 15 74t41.5 61.5t61.5 41.5t74 15h256q39 0 74 -15t61.5 -41.5t41.5 -61.5t15 -74v-1408q0 -39 -15 -74t-41.5 -61.5t-61.5 -41.5t-74 -15h-256q-39 0 -74 15t-61.5 41.5t-41.5 61.5t-15 74zM256 320q0 -26 19 -45t45 -19h256q26 0 45 19t19 45v1408 q0 26 -19 45t-45 19h-256q-26 0 -45 -19t-19 -45v-1408zM1280 320v1408q0 39 15 74t41.5 61.5t61.5 41.5t74 15h256q39 0 74 -15t61.5 -41.5t41.5 -61.5t15 -74v-1408q0 -39 -15 -74t-41.5 -61.5t-61.5 -41.5t-74 -15h-256q-39 0 -74 15t-61.5 41.5t-41.5 61.5t-15 74z M1408 320q0 -26 19 -45t45 -19h256q26 0 45 19t19 45v1408q0 26 -19 45t-45 19h-256q-26 0 -45 -19t-19 -45v-1408z" />
<glyph unicode="&#xe104;" d="M24 87q0 6 2 16l124 495q5 17 13 32.5t20 27.5l1292 1292q47 47 109.5 72.5t128.5 25.5q69 0 129 -25.5t104.5 -70t69.5 -104.5t25 -129q0 -72 -27 -139.5t-78 -118.5l-1278 -1278q-12 -12 -27.5 -20t-32.5 -13l-495 -124q-10 -2 -15 -2q-26 0 -45 18.5t-19 44.5z M176 176l391 98l1135 1135l-293 293l-1135 -1135zM1499 1792l293 -293q25 24 47 47t38.5 48t26 54t9.5 67q0 43 -14.5 80.5t-41 65.5t-63.5 43.5t-81 15.5q-38 0 -67 -10.5t-53.5 -28.5t-46.5 -41t-47 -48z" />
<glyph unicode="&#xe105;" d="M128 379v1285q0 51 20 97.5t54 81.5t79.5 56t97.5 21h1013q51 0 98 -19.5t83 -55.5l272 -272q36 -36 55.5 -83t19.5 -98v-1008q0 -51 -20 -97.5t-54 -81.5t-79.5 -56t-97.5 -21h-1285q-51 0 -97.5 20t-81.5 54t-56 79.5t-21 97.5zM256 384q0 -27 10 -50.5t27 -40.5 t40.5 -27t50.5 -10v576q0 39 15 74t41.5 61.5t61.5 41.5t74 15h896q39 0 74 -15t61.5 -41.5t41.5 -61.5t15 -74v-576q27 0 50 10t40.5 27.5t27.5 40.5t10 50v1008q0 54 -37 91l-272 272q-31 31 -75 36v-319q0 -39 -15 -74t-41.5 -61.5t-61.5 -41.5t-74 -15h-512 q-39 0 -74 15t-61.5 41.5t-41.5 61.5t-15 74v320h-128q-27 0 -50 -10t-40.5 -27.5t-27.5 -40.5t-10 -50v-1280zM512 256h1024v576q0 26 -19 45t-45 19h-896q-26 0 -45 -19t-19 -45v-576zM640 1472q0 -26 19 -45t45 -19h512q26 0 45 19t19 45v320h-640v-320z" />
<glyph unicode="&#xe106;" d="M256 448q0 26 19 45l595 595l-595 595q-19 19 -19 45t19 45t45 19t45 -19l595 -595l595 595q19 19 45 19t45 -19t19 -45t-19 -45l-595 -595l595 -595q19 -19 19 -45t-19 -45t-45 -19t-45 19l-595 595l-595 -595q-19 -19 -45 -19t-45 19t-19 45z" />
<glyph unicode="&#xe894;" d="M256 448q0 26 19 45l595 595l-595 595q-19 19 -19 45t19 45t45 19t45 -19l595 -595l595 595q19 19 45 19t45 -19t19 -45t-19 -45l-595 -595l595 -595q19 -19 19 -45t-19 -45t-45 -19t-45 19l-595 595l-595 -595q-19 -19 -45 -19t-45 19t-19 45z" />
<glyph unicode="&#xe711;" d="M256 448q0 26 19 45l595 595l-595 595q-19 19 -19 45t19 45t45 19t45 -19l595 -595l595 595q19 19 45 19t45 -19t19 -45t-19 -45l-595 -595l595 -595q19 -19 19 -45t-19 -45t-45 -19t-45 19l-595 595l-595 -595q-19 -19 -45 -19t-45 19t-19 45z" />
<glyph unicode="&#xe10a;" d="M256 448q0 26 19 45l595 595l-595 595q-19 19 -19 45t19 45t45 19t45 -19l595 -595l595 595q19 19 45 19t45 -19t19 -45t-19 -45l-595 -595l595 -595q19 -19 19 -45t-19 -45t-45 -19t-45 19l-595 595l-595 -595q-19 -19 -45 -19t-45 19t-19 45z" />
<glyph unicode="&#xe107;" d="M64 1728q0 26 19 45t45 19h582q10 55 39.5 102t72 81.5t94.5 53.5t108 19t108 -19t94.5 -53.5t72 -81.5t39.5 -102h582q26 0 45 -19t19 -45q0 -22 -8.5 -35t-22.5 -19.5t-31 -8.5t-35 -2q-10 0 -20 0.5t-18 0.5l-166 -1437q-6 -48 -28 -89.5t-56 -72t-78 -48t-92 -17.5 h-810q-48 0 -92 17.5t-78 48t-56 72t-28 89.5l-166 1437q-10 0 -20 -0.5t-20 -0.5q-17 0 -34 2t-30.5 9t-22 20t-8.5 34zM328 1664l164 -1423q6 -50 41.5 -81.5t85.5 -31.5h810q24 0 46 8.5t39 23.5t28 36t14 45l164 1423h-1392zM768 576v640q0 26 19 45t45 19t45 -19 t19 -45v-640q0 -26 -19 -45t-45 -19t-45 19t-19 45zM843 1792h362q-10 29 -28 52.5t-42 40.5t-52 26t-59 9t-59 -9t-52 -26t-42 -40.5t-28 -52.5zM1152 576v640q0 26 19 45t45 19t45 -19t19 -45v-640q0 -26 -19 -45t-45 -19t-45 19t-19 45z" />
<glyph unicode="&#xe108;" d="M128 1088q0 26 19 45t45 19h1536q26 0 45 -19t19 -45t-19 -45t-45 -19h-1536q-26 0 -45 19t-19 45z" />
<glyph unicode="&#xe738;" d="M128 1088q0 26 19 45t45 19h1536q26 0 45 -19t19 -45t-19 -45t-45 -19h-1536q-26 0 -45 19t-19 45z" />
<glyph unicode="&#xe109;" d="M128 1088q0 26 19 45t45 19h704v704q0 26 19 45t45 19t45 -19t19 -45v-704h704q26 0 45 -19t19 -45t-19 -45t-45 -19h-704v-704q0 -26 -19 -45t-45 -19t-45 19t-19 45v704h-704q-26 0 -45 19t-19 45z" />
<glyph unicode="&#xe710;" d="M128 1088q0 26 19 45t45 19h704v704q0 26 19 45t45 19t45 -19t19 -45v-704h704q26 0 45 -19t19 -45t-19 -45t-45 -19h-704v-704q0 -26 -19 -45t-45 -19t-45 19t-19 45v704h-704q-26 0 -45 19t-19 45z" />
<glyph unicode="&#xe10b;" d="M0 1088q0 26 19 45t45 19t45 -19l595 -594l1235 1234q19 19 45 19t45 -19t19 -45t-19 -45l-1280 -1280q-19 -19 -45 -19t-45 19l-640 640q-19 19 -19 45z" />
<glyph unicode="&#xe10c;" d="M224 1024q0 33 13 62t34.5 50.5t50.5 34.5t62 13t62 -13t50.5 -34.5t34.5 -50.5t13 -62t-13 -62t-34.5 -50.5t-50.5 -34.5t-62 -13t-62 13t-50.5 34.5t-34.5 50.5t-13 62zM864 1024q0 33 13 62t34.5 50.5t50.5 34.5t62 13t62 -13t50.5 -34.5t34.5 -50.5t13 -62t-13 -62 t-34.5 -50.5t-50.5 -34.5t-62 -13t-62 13t-50.5 34.5t-34.5 50.5t-13 62zM1504 1024q0 33 13 62t34.5 50.5t50.5 34.5t62 13t62 -13t50.5 -34.5t34.5 -50.5t13 -62t-13 -62t-34.5 -50.5t-50.5 -34.5t-62 -13t-62 13t-50.5 34.5t-34.5 50.5t-13 62z" />
<glyph unicode="&#xe10d;" d="M128 1408q0 133 50 249.5t137 203.5t203.5 137t249.5 50q112 0 217.5 -38t191.5 -110l487 -405v489q0 26 19 45t45 19t45 -19t19 -45v-640q0 -26 -19 -45t-45 -19h-640q-26 0 -45 19t-19 45t19 45t45 19h480l-472 394q-72 60 -158.5 89t-179.5 29q-67 0 -130 -18.5 t-119 -52t-102.5 -80t-80 -102.5t-52 -119t-18.5 -130q0 -120 46 -223t139 -181l1072 -901q23 -20 23 -49q0 -26 -19 -45t-45 -19q-23 0 -41 15l-1072 901q-112 94 -171.5 220t-59.5 272z" />
<glyph unicode="&#xe10e;" d="M256 1344v640q0 26 19 45t45 19t45 -19t19 -45v-489l487 405q86 72 191.5 110t217.5 38q133 0 249.5 -50t203.5 -137t137 -203.5t50 -249.5q0 -144 -60.5 -271.5t-170.5 -220.5l-1072 -901q-18 -15 -41 -15q-26 0 -45 19t-19 45q0 14 6 27t17 22l1072 901q93 78 139 181 t46 223q0 67 -18.5 130t-52 119t-80 102.5t-102.5 80t-119 52t-130 18.5q-94 0 -179.5 -29t-157.5 -89l-473 -394h480q26 0 45 -19t19 -45t-19 -45t-45 -19h-640q-26 0 -45 19t-19 45z" />
<glyph unicode="&#xe10f;" d="M128 384v779q0 38 15 74t41 62l682 681q32 32 72.5 49t85.5 17t85.5 -17t72.5 -49l682 -681q26 -26 41 -62t15 -74v-779q0 -53 -20 -99.5t-55 -81.5t-81.5 -55t-99.5 -20h-384q-27 0 -50.5 10t-40.5 27t-27 40.5t-10 50.5v512h-256v-512q0 -27 -10 -50t-27.5 -40.5 t-40.5 -27.5t-50 -10h-384q-53 0 -99.5 20t-81.5 55t-55 81.5t-20 99.5zM256 384q0 -27 10 -50.5t27 -40.5t40.5 -27t50.5 -10h384v512q0 27 10 50t27.5 40.5t40.5 27.5t50 10h256q26 0 49.5 -10t41 -27.5t27.5 -41t10 -49.5v-512h384q27 0 50 10t40.5 27.5t27.5 40.5t10 50 v779q0 26 -19 45l-681 682q-28 28 -68 28t-68 -28l-681 -682q-19 -19 -19 -45v-779z" />
<glyph unicode="&#xe110;" d="M0 1088q0 26 19 45l893 893q11 11 21.5 16.5t26.5 5.5t26.5 -5.5t21.5 -16.5l893 -893q19 -19 19 -45t-19 -45t-45 -19t-45 19l-787 786v-1765q0 -26 -19 -45t-45 -19t-45 19t-19 45v1765l-787 -786q-19 -19 -45 -19t-45 19t-19 45z" />
<glyph unicode="&#xe114;" d="M0 379v1162q0 52 21 97.5t56 79.5t81.5 54t97.5 20h280l75 150q25 48 71.5 77t100.5 29h482q54 0 100.5 -29t71.5 -77l75 -150h285q50 0 95.5 -20.5t80 -55t55 -80t20.5 -95.5v-1162q0 -50 -20.5 -95.5t-55 -80t-80 -55t-95.5 -20.5h-1546q-50 0 -95.5 20.5t-80 55 t-55 80t-20.5 95.5zM128 384q0 -27 10 -50.5t27 -40.5t40.5 -27t50.5 -10h1536q27 0 50 10t40.5 27.5t27.5 40.5t10 50v1152q0 26 -10 49.5t-27.5 41t-41 27.5t-49.5 10h-320q-17 0 -33 9.5t-24 25.5l-93 186q-8 16 -24 25.5t-33 9.5h-482q-17 0 -33 -9.5t-24 -25.5 l-93 -186q-8 -16 -24 -25.5t-33 -9.5h-320q-27 0 -50 -10t-40.5 -27.5t-27.5 -40.5t-10 -50v-1152zM512 1034q0 101 40.5 192t109.5 160t160 109.5t192 40.5q111 0 206.5 -40t165.5 -110t110 -165.5t40 -206.5q0 -104 -41.5 -195.5t-111.5 -159.5t-163 -107.5t-196 -39.5 q-110 0 -203.5 41t-162 112t-107.5 166t-39 203zM640 1024q0 -80 30 -150t82 -122t122 -82t150 -30q82 0 152.5 30.5t122 84t80.5 125t29 152.5q0 78 -31 146.5t-83.5 119.5t-122.5 80.5t-147 29.5q-80 0 -150 -30t-122 -82t-82 -122t-30 -150z" />
<glyph unicode="&#xe115;" d="M56 1344q0 18 9.5 46t24.5 60t34.5 65.5t39 64t37.5 55.5t31 39q20 22 45.5 34t54.5 12q35 0 68 -13t66 -28.5t66.5 -28.5t68.5 -13q45 0 77.5 27.5t40.5 71.5l18 98l18 98q8 42 36.5 69t70.5 35q40 7 81 9.5t81 2.5q42 0 84 -3t83 -11q42 -8 69 -35t35 -69q9 -49 17 -97 t17 -97q8 -43 41 -71t77 -28q35 0 69 13t67.5 28t67.5 28t69 13q31 0 55.5 -12.5t44.5 -35.5q13 -15 30.5 -40t36.5 -55t38 -63.5t33.5 -65t23.5 -59.5t9 -47q0 -37 -18 -65t-44.5 -51.5t-58 -44.5t-58 -44.5t-44.5 -50t-18 -61.5q0 -34 18 -61t45 -50.5t58 -45.5t58 -46.5 t45 -52.5t18 -64q0 -20 -9.5 -47.5t-24.5 -59.5t-34.5 -65t-39 -63t-38 -55t-31.5 -40q-20 -22 -44.5 -34t-53.5 -12q-33 0 -67.5 13t-68.5 28.5t-68 28.5t-66 13q-44 0 -68 -18t-37 -46.5t-18.5 -63t-11.5 -66.5q-5 -26 -9.5 -50.5t-9.5 -50.5q-8 -43 -36 -69.5t-71 -34.5 q-40 -7 -80.5 -9.5t-81.5 -2.5q-42 0 -84 3t-83 11q-42 8 -69 35.5t-35 69.5q-9 48 -17 96.5t-17 96.5q-8 43 -41 71t-77 28q-35 0 -69 -13t-67.5 -28t-67.5 -28t-69 -13q-30 0 -55 12.5t-45 35.5q-13 15 -30.5 40t-36.5 55t-38 63.5t-33.5 65t-23.5 59.5t-9 47 q0 36 18 64.5t44.5 52t58 44.5t58 44.5t44.5 50t18 61.5q0 34 -18 61t-45 50.5t-58 45.5t-58 46.5t-45 52.5t-18 64zM185 1343l153 -130q42 -35 65 -84.5t23 -104.5t-23.5 -105t-65.5 -85l-151 -126v-1q0 -1 4 -11.5t5 -11.5q24 -62 57.5 -118.5t75.5 -108.5h1l188 68 q40 14 82 14q68 0 125 -33q48 -27 79.5 -72t41.5 -99l34 -195q72 -12 145 -12q36 0 72 2.5t71 7.5q4 22 9 54.5t11 66.5t13 65t14 50q28 75 90 120t143 45q27 0 62.5 -9.5t73 -22.5t72.5 -27t62 -24q47 56 83 118.5t63 129.5v1l-153 130q-42 35 -65 84.5t-23 104.5t23.5 105 t65.5 85l151 126v1q0 1 -4 11.5t-5 11.5q-24 62 -57.5 118.5t-75.5 108.5h-1l-188 -68q-40 -14 -82 -14q-68 0 -125 33q-48 27 -79.5 72t-41.5 99l-34 195q-72 12 -145 12q-36 0 -72 -2.5t-71 -7.5q-9 -50 -17 -99t-19 -98q-9 -44 -31 -81.5t-54 -64.5t-72 -42.5t-86 -15.5 q-45 0 -85 15h-1l-184 68h-1q-46 -57 -83 -118.5t-63 -129.5v-1zM640 1024q0 80 30 150t82 122t122 82t150 30t150 -30t122 -82t82 -122t30 -150t-30 -150t-82 -122t-122 -82t-150 -30t-150 30t-122 82t-82 122t-30 150zM768 1024q0 -53 20 -99.5t55 -81.5t81.5 -55 t99.5 -20t99.5 20t81.5 55t55 81.5t20 99.5t-20 99.5t-55 81.5t-81.5 55t-99.5 20t-99.5 -20t-81.5 -55t-55 -81.5t-20 -99.5z" />
<glyph unicode="&#xe116;" d="M0 507v1029q0 51 20 97.5t54 81.5t79.5 56t97.5 21h1034q52 0 97.5 -21t79.5 -56t54 -81.5t20 -97.5v-192l307 230q34 26 77 26q26 0 49 -10.5t40.5 -28t28 -40.5t10.5 -49v-896q0 -26 -10 -49.5t-27.5 -41t-41 -27.5t-49.5 -10q-43 0 -77 26l-307 230v-192 q0 -51 -20 -97.5t-54 -81.5t-79.5 -56t-97.5 -21h-1029q-51 0 -97.5 20t-81.5 54t-56 79.5t-21 97.5zM128 512q0 -27 10 -50.5t27 -40.5t40.5 -27t50.5 -10h1024q27 0 50 10t40.5 27.5t27.5 40.5t10 50v1024q0 26 -10 49.5t-27.5 41t-41 27.5t-49.5 10h-1024q-27 0 -50 -10 t-40.5 -27.5t-27.5 -40.5t-10 -50v-1024zM1536 864l384 -288v896l-384 -288v-320z" />
<glyph unicode="&#xe20a;" d="M0 507v1029q0 51 20 97.5t54 81.5t79.5 56t97.5 21h1034q52 0 97.5 -21t79.5 -56t54 -81.5t20 -97.5v-192l307 230q34 26 77 26q26 0 49 -10.5t40.5 -28t28 -40.5t10.5 -49v-896q0 -26 -10 -49.5t-27.5 -41t-41 -27.5t-49.5 -10q-43 0 -77 26l-307 230v-192 q0 -51 -20 -97.5t-54 -81.5t-79.5 -56t-97.5 -21h-1029q-51 0 -97.5 20t-81.5 54t-56 79.5t-21 97.5zM128 512q0 -27 10 -50.5t27 -40.5t40.5 -27t50.5 -10h1024q27 0 50 10t40.5 27.5t27.5 40.5t10 50v1024q0 26 -10 49.5t-27.5 41t-41 27.5t-49.5 10h-1024q-27 0 -50 -10 t-40.5 -27.5t-27.5 -40.5t-10 -50v-1024zM1536 864l384 -288v896l-384 -288v-320z" />
<glyph unicode="&#xe117;" d="M0 1024q0 141 36.5 272t103.5 245t160.5 207.5t207.5 160t245 103t272 36.5q109 0 215.5 -23.5t205 -68t186.5 -109t160 -146.5v283q0 26 19 45t45 19t45 -19t19 -45q0 -121 0.5 -241t0.5 -241q0 -17 -2.5 -33.5t-9 -30t-19.5 -22t-34 -8.5h-512q-26 0 -45 19t-19 45 t19 45t45 19h415q-63 90 -144.5 161.5t-176 121t-199.5 75.5t-215 26q-104 0 -204 -23.5t-191.5 -68.5t-171.5 -110t-143 -148q-90 -118 -138 -258t-48 -288q0 -26 -19 -45t-45 -19t-45 19t-19 45zM127 546q0 16 2.5 33t9 30.5t19.5 22t34 8.5h512q26 0 45 -19t19 -45 t-19 -45t-45 -19h-415q63 -91 144.5 -162t176.5 -120.5t200 -75.5t215 -26q103 0 203.5 24t192 69t171 110t142.5 147q90 118 138 258t48 288q0 26 19 45t45 19t45 -19t19 -45q0 -141 -36.5 -271.5t-103.5 -244.5t-160 -207.5t-207 -160.5t-244.5 -103.5t-271.5 -36.5 q-110 0 -216.5 23t-205.5 67.5t-187 109t-160 147.5v-283q0 -26 -19 -45t-45 -19t-45 19t-19 45q0 121 -0.5 241t-0.5 241z" />
<glyph unicode="&#xe118;" d="M256 64q0 26 19 45t45 19h1280q26 0 45 -19t19 -45t-19 -45t-45 -19h-1280q-26 0 -45 19t-19 45zM320 896q0 26 19 45t45 19t45 -19l467 -466v1509q0 26 19 45t45 19t45 -19t19 -45v-1509l467 466q19 19 45 19t45 -19t19 -45t-19 -45l-573 -573q-11 -11 -21.5 -16.5 t-26.5 -5.5t-26.5 5.5t-21.5 16.5l-573 573q-19 19 -19 45z" />
<glyph unicode="&#xe119;" d="M0 384v1152q0 51 20 97.5t54 81.5t79.5 56t97.5 21h1541q51 0 97.5 -20t81.5 -54t56 -79.5t21 -97.5v-1157q0 -51 -20 -97.5t-54 -81.5t-79.5 -56t-97.5 -21h-1541q-53 0 -99.5 20t-81.5 55t-55 81.5t-20 99.5zM128 384q0 -27 10 -50.5t27 -40.5t40.5 -27t50.5 -10h1536 q27 0 50 10t40.5 27.5t27.5 40.5t10 50v926l-761 -470q-61 -38 -135 -38t-135 38l-761 470v-926zM128 1460l829 -511q31 -19 67 -19t67 19l829 511v76q0 26 -10 49.5t-27.5 41t-41 27.5t-49.5 10h-1536q-27 0 -50 -10t-40.5 -27.5t-27.5 -40.5t-10 -50v-76z" />
<glyph unicode="&#xe11b;" d="M512 1418q0 104 41.5 195.5t112 159.5t163 107.5t195.5 39.5t195.5 -39.5t163 -107.5t112 -159.5t41.5 -195.5q0 -81 -17 -141.5t-49 -110.5t-77.5 -95t-102.5 -96q-29 -26 -57 -50.5t-54 -52.5q-33 -36 -51 -69.5t-27 -68t-11 -73.5t-2 -85q0 -26 -19 -45t-45 -19 q-22 0 -34.5 8t-19 21.5t-8.5 30.5t-2 34v34q0 79 19 139.5t50.5 109t72 88t82.5 76t82 72.5t71.5 78.5t51 94t19.5 118.5q0 78 -31 146.5t-83.5 119.5t-122.5 80.5t-147 29.5q-80 0 -150 -30t-122 -82t-82 -122t-30 -150q0 -26 -19 -45t-45 -19q-32 0 -48 22.5t-16 51.5z M928 224q0 40 28 68t68 28t68 -28t28 -68t-28 -68t-68 -28t-68 28t-28 68z" />
<glyph unicode="&#xe11c;" d="M256 1984q0 26 19 45t45 19h1280q26 0 45 -19t19 -45t-19 -45t-45 -19h-1280q-26 0 -45 19t-19 45zM320 1152q0 26 19 45l573 573q11 11 22 16.5t26 5.5t26 -5.5t22 -16.5l573 -573q19 -19 19 -45t-19 -45t-45 -19q-14 0 -24.5 5t-20.5 14l-467 466v-1509q0 -26 -19 -45 t-45 -19t-45 19t-19 45v1509l-467 -466q-19 -19 -45 -19t-45 19t-19 45z" />
<glyph unicode="&#xe183;" d="M256 1984q0 26 19 45t45 19h1280q26 0 45 -19t19 -45t-19 -45t-45 -19h-1280q-26 0 -45 19t-19 45zM320 1152q0 26 19 45l573 573q11 11 22 16.5t26 5.5t26 -5.5t22 -16.5l573 -573q19 -19 19 -45t-19 -45t-45 -19q-14 0 -24.5 5t-20.5 14l-467 466v-1509q0 -26 -19 -45 t-45 -19t-45 19t-19 45v1509l-467 -466q-19 -19 -45 -19t-45 19t-19 45z" />
<glyph unicode="&#xe11d;" d="M0 1024q0 142 36.5 273t103 244.5t160 207t207 160t244.5 103t273 36.5q141 0 272 -36.5t245 -103t207.5 -160t160 -207.5t103 -245t36.5 -272q0 -142 -36.5 -273t-103 -244.5t-160 -207t-207 -160t-244.5 -103t-273 -36.5t-273 36.5t-245 103t-207 159.5t-159.5 207 t-103 245t-36.5 273zM128 1024q0 -124 32 -238.5t90.5 -214t140 -181t181 -140t214 -90.5t238.5 -32t238.5 32t214 90.5t181 140t140 181t90.5 214t32 238.5q0 123 -32 237.5t-90.5 214t-140.5 181.5t-181.5 140.5t-214 90.5t-237.5 32q-124 0 -238.5 -32t-214 -90.5 t-181 -140t-140 -181t-90.5 -214t-32 -238.5zM384 954v8q0 26 18.5 44t44.5 18h1152q32 0 48 -20.5t16 -49.5q0 -39 -12 -84t-26 -81q-35 -96 -95.5 -171.5t-139.5 -127.5t-172.5 -79t-194.5 -27q-128 0 -238.5 41t-195 116t-138.5 180t-67 233zM448 1279q0 7 1 11 q7 40 27.5 73.5t50.5 57.5t67 37.5t78 13.5q40 0 77.5 -13.5t67.5 -37.5t51 -57.5t27 -73.5q0 -2 0.5 -4.5t0.5 -4.5q0 -27 -19.5 -46t-46.5 -19q-22 0 -33.5 9.5t-19 23.5t-13.5 31t-16.5 31t-28 23.5t-47.5 9.5t-47.5 -9.5t-28 -23.5t-16.5 -31t-14 -31t-19.5 -23.5 t-33.5 -9.5q-26 0 -45.5 18t-19.5 45zM523 896q21 -91 68.5 -162.5t114.5 -120.5t150 -75t174 -26q89 0 170 27t146 77t111.5 121t66.5 159h-1001zM1152 1279q0 7 1 11q7 41 27.5 74.5t50 57.5t67 37t78.5 13q40 0 77.5 -13.5t67.5 -37.5t51 -57.5t27 -73.5q0 -2 0.5 -4.5 t0.5 -4.5q0 -27 -19.5 -46t-46.5 -19q-22 0 -33.5 9.5t-19 23.5t-13.5 31t-16.5 31t-28 23.5t-47.5 9.5t-47.5 -9.5t-28 -23.5t-16.5 -31t-14 -31t-19.5 -23.5t-33.5 -9.5q-26 0 -45.5 18t-19.5 45z" />
<glyph unicode="&#xe11e;" d="M0 507v1034q0 50 20.5 95.5t55 80t80 55t95.5 20.5h1014q51 0 98 -19.5t83 -55.5l527 -527q36 -36 55.5 -83t19.5 -98v-502q0 -50 -20.5 -95.5t-55 -80t-80 -55t-95.5 -20.5h-1546q-50 0 -95.5 20.5t-80 55t-55 80t-20.5 95.5zM128 512q0 -27 10 -50.5t27 -40.5t40.5 -27 t50.5 -10h640v1280h-640q-27 0 -50 -10t-40.5 -27.5t-27.5 -40.5t-10 -50v-1024zM1024 384h768q27 0 50 10t40.5 27.5t27.5 40.5t10 50v497q0 10 -1 15h-388q-52 0 -97.5 21t-79.5 56t-54 81.5t-20 97.5v383q-5 1 -15 1h-241v-1280zM1408 1280q0 -27 10 -50.5t27 -40.5 t40.5 -27t50.5 -10h294l-422 422v-294z" />
<glyph unicode="&#xe11f;" d="M0 64q0 13 3 29.5t7.5 34t9 34t7.5 28.5q23 90 45.5 178t45.5 178q-59 111 -88.5 232t-29.5 246q0 142 36.5 273t103 244.5t160 207t207 160t244.5 103t273 36.5q140 0 270.5 -36t243.5 -102t206.5 -158.5t160.5 -205t104 -242.5t39 -270q-59 77 -140 135 q-27 162 -106.5 300t-197.5 238t-266.5 156.5t-313.5 56.5q-124 0 -238.5 -32t-214 -90.5t-181 -140t-140 -181t-90.5 -214t-32 -238.5q0 -62 8 -117.5t23 -108.5t36 -105t47 -107q4 -8 6.5 -16t2.5 -17q0 -6 -3 -21t-7 -31.5t-8 -31.5t-5 -21q-18 -75 -37 -149t-39 -149 q14 3 47.5 11.5t76 19t89.5 22t88 21t71 15.5t39 6q17 0 31 -7q70 -32 139 -58.5t146 -39.5q58 -81 135 -140q-121 2 -236.5 30t-222.5 84l-476 -112q-10 -2 -15 -2q-27 0 -45.5 18.5t-18.5 45.5zM896 576q0 119 45.5 224t123.5 183t183 123.5t224 45.5q79 0 152.5 -20.5 t137.5 -58t117 -90.5t90.5 -117t58 -137.5t20.5 -152.5q0 -119 -45.5 -224t-123.5 -183t-183 -123.5t-224 -45.5q-120 0 -225 45t-183 123t-123 183t-45 225zM1144 576q0 -30 21 -51l256 -256q21 -21 51 -21t51 21t21 51t-21 51l-141 141h346q26 0 45 19t19 45t-19 45 t-45 19h-346l141 141q21 21 21 51t-21 51t-51 21t-51 -21l-256 -256q-21 -21 -21 -51z" />
<glyph unicode="&#xe120;" d="M0 379v1162q0 50 20.5 95.5t55 80t80 55t95.5 20.5h1546q50 0 95.5 -20.5t80 -55t55 -80t20.5 -95.5v-507q-28 35 -60 67t-68 59v150l-121 -75q-76 37 -153 56l274 169v76q0 26 -10 49.5t-27.5 41t-41 27.5t-49.5 10h-1536q-27 0 -50 -10t-40.5 -27.5t-27.5 -40.5 t-10 -50v-76l743 -459q-18 -26 -34 -53.5t-30 -56.5l-679 419v-926q0 -27 10 -50.5t27 -40.5t40.5 -27t50.5 -10h553q17 -34 36.5 -66t42.5 -62h-637q-50 0 -95.5 20.5t-80 55t-55 80t-20.5 95.5zM896 576q0 119 45.5 224t123.5 183t183 123.5t224 45.5q79 0 152.5 -20.5 t137.5 -58t117 -90.5t90.5 -117t58 -137.5t20.5 -152.5q0 -119 -45.5 -224t-123.5 -183t-183 -123.5t-224 -45.5q-120 0 -225 45t-183 123t-123 183t-45 225zM1152 576q0 -26 19 -45t45 -19h346l-141 -141q-21 -21 -21 -51t21 -51t51 -21t51 21l256 256q21 21 21 51t-21 51 l-256 256q-21 21 -51 21t-51 -21t-21 -51t21 -51l141 -141h-346q-26 0 -45 -19t-19 -45z" />
<glyph unicode="&#xe121;" d="M0 1088q0 133 34 255.5t96.5 229.5t150 194.5t194.5 150t229.5 96.5t255.5 34q132 0 254.5 -34.5t229.5 -97t194.5 -150t150 -194.5t97 -229.5t34.5 -254.5q0 -133 -34.5 -255.5t-97 -229t-150 -194t-194 -150t-229.5 -97t-255 -34.5q-133 0 -256 34t-229.5 96.5 t-194 150t-150 194t-96.5 229.5t-34 256zM128 1088q0 -115 29.5 -221.5t83.5 -199t130 -168.5t168.5 -130t199 -83.5t221.5 -29.5t221.5 29.5t199 83.5t168.5 130t130 168.5t83.5 199t29.5 221.5t-29.5 221.5t-84 199t-130 168t-168 130t-199 84t-221.5 29.5t-221.5 -29.5 t-199 -84t-168 -130t-130 -168t-84 -199t-29.5 -221.5zM896 1088v512q0 26 19 45t45 19t45 -19t19 -45v-448h320q26 0 45 -19t19 -45t-19 -45t-45 -19h-384q-26 0 -45 19t-19 45z" />
<glyph unicode="&#xe2ad;" d="M0 1088q0 133 34 255.5t96.5 229.5t150 194.5t194.5 150t229.5 96.5t255.5 34q132 0 254.5 -34.5t229.5 -97t194.5 -150t150 -194.5t97 -229.5t34.5 -254.5q0 -133 -34.5 -255.5t-97 -229t-150 -194t-194 -150t-229.5 -97t-255 -34.5q-133 0 -256 34t-229.5 96.5 t-194 150t-150 194t-96.5 229.5t-34 256zM128 1088q0 -115 29.5 -221.5t83.5 -199t130 -168.5t168.5 -130t199 -83.5t221.5 -29.5t221.5 29.5t199 83.5t168.5 130t130 168.5t83.5 199t29.5 221.5t-29.5 221.5t-84 199t-130 168t-168 130t-199 84t-221.5 29.5t-221.5 -29.5 t-199 -84t-168 -130t-130 -168t-84 -199t-29.5 -221.5zM896 1088v512q0 26 19 45t45 19t45 -19t19 -45v-448h320q26 0 45 -19t19 -45t-19 -45t-45 -19h-384q-26 0 -45 19t-19 45z" />
<glyph unicode="&#xe122;" d="M0 193v9t2 8l251 878l-251 878q-2 4 -2 8v9q0 28 18 46.5t46 18.5q15 0 27 -6l1920 -896q37 -17 37 -58q0 -19 -10 -34.5t-27 -23.5l-1920 -896q-12 -6 -27 -6q-28 0 -46 18.5t-18 46.5zM164 309l1669 779l-1669 779l205 -715h847q26 0 45 -19t19 -45t-19 -45t-45 -19 h-847z" />
<glyph unicode="&#xe123;" d="M0 1600q0 26 19 45t45 19h320v320q0 26 19 45t45 19t45 -19t19 -45v-1280q0 -39 15 -74t41.5 -61.5t61.5 -41.5t74 -15h1280q26 0 45 -19t19 -45t-19 -45t-45 -19h-320v-320q0 -26 -19 -45t-45 -19t-45 19t-19 45v320h-839q-65 0 -122 26t-99.5 70t-67 102t-24.5 122v832 h-320q-26 0 -45 19t-19 45zM640 1536v128h711q63 0 120 -25.5t99.5 -68t68 -99.5t25.5 -120v-711h-128v704q0 39 -15 74t-41.5 61.5t-61.5 41.5t-74 15h-704z" />
<glyph unicode="&#xe124;" d="M0 704v775q0 65 26 122t70 99.5t102 67t122 24.5h1382l-147 147q-19 19 -19 45t19 45t45 19t45 -19l256 -256q19 -19 19 -45t-19 -45l-256 -256q-19 -19 -45 -19t-45 19t-19 45t19 45l147 147h-1382q-39 0 -74 -15t-61.5 -41.5t-41.5 -61.5t-15 -74v-768q0 -26 -19 -45 t-45 -19t-45 19t-19 45zM128 320q0 26 19 45l256 256q19 19 45 19t45 -19t19 -45t-19 -45l-146 -147h1381q39 0 74 15t61.5 41.5t41.5 61.5t15 74v768q0 26 19 45t45 19t45 -19t19 -45v-775q0 -65 -26 -122t-70 -99.5t-102 -67t-122 -24.5h-1381l146 -147q19 -19 19 -45 t-19 -45t-45 -19t-45 19l-256 256q-19 19 -19 45zM640 1032q0 78 31 146.5t83.5 119.5t122.5 80.5t147 29.5q80 0 150 -30t122 -82t82 -122t30 -150t-30 -150t-82 -122t-122 -82t-150 -30q-83 0 -153 30.5t-121.5 84t-80.5 125t-29 152.5zM768 1024q0 -53 20.5 -99.5t55 -81 t81 -55t99.5 -20.5q54 0 100.5 20.5t81 56t54.5 83t20 101.5q0 52 -21 97.5t-56 79.5t-81.5 54t-97.5 20q-53 0 -99.5 -20.5t-81 -55t-55 -81.5t-20.5 -99z" />
<glyph unicode="&#xe125;" d="M0 772q0 43 14.5 88t41.5 81.5t65.5 59.5t86.5 23h992q48 0 86.5 -23t65.5 -59.5t41.5 -81.5t14.5 -88q0 -87 -18 -167.5t-55.5 -151.5t-94 -130.5t-133.5 -103.5q-45 -26 -94.5 -43.5t-100.5 -28t-103.5 -15t-104.5 -4.5q-105 0 -208 19t-195 72q-78 45 -134.5 104 t-93.5 129.5t-55 151t-18 168.5zM128 768q0 -133 43.5 -229.5t120.5 -159.5t182.5 -93t229.5 -30t229.5 30t182.5 93t120.5 159.5t43.5 229.5q0 17 -5 39.5t-15.5 42t-26.5 33t-37 13.5h-984q-21 0 -37 -13.5t-26.5 -33t-15.5 -42t-5 -39.5zM256 1608q0 90 36.5 170t98 140 t142.5 95t171 35q92 0 173.5 -35.5t142.5 -96.5t96.5 -142.5t35.5 -173.5t-35.5 -173.5t-96.5 -142.5t-142.5 -96.5t-173.5 -35.5q-95 0 -177 36t-142 98t-94.5 145t-34.5 177zM384 1600q0 -67 25 -125t68.5 -101.5t101.5 -68.5t125 -25q69 0 127.5 25.5t101.5 70t67 104 t24 127.5q0 65 -26 122t-70 99.5t-102 67t-122 24.5q-67 0 -125 -25t-101.5 -68.5t-68.5 -101.5t-25 -125zM1280 1479q0 65 26 122t70 99.5t102 67t122 24.5q67 0 125 -25t101.5 -68.5t68.5 -101.5t25 -125t-25 -125t-68.5 -101.5t-101.5 -68.5t-125 -25q-69 0 -127.5 25.5 t-101.5 70t-67 104t-24 127.5zM1397 256q49 59 84 131q93 7 173.5 34.5t139.5 78t92.5 125t33.5 175.5q0 15 -4.5 31.5t-13 31t-21.5 24t-30 9.5h-301q-11 34 -26 66.5t-35 61.5h362q44 0 80.5 -19.5t62.5 -51t40 -72t14 -81.5q0 -154 -69 -273t-205 -193 q-86 -47 -183 -62.5t-194 -15.5zM1408 1472q0 -39 15 -74t41.5 -61.5t61.5 -41.5t74 -15t74 15t61.5 41.5t41.5 61.5t15 74t-15 74t-41.5 61.5t-61.5 41.5t-74 15t-74 -15t-61.5 -41.5t-41.5 -61.5t-15 -74z" />
<glyph unicode="&#xe126;" d="M0 507v1034q0 50 20.5 95.5t55 80t80 55t95.5 20.5h1546q50 0 95.5 -20.5t80 -55t55 -80t20.5 -95.5v-1034q0 -50 -20.5 -95.5t-55 -80t-80 -55t-95.5 -20.5h-1546q-50 0 -95.5 20.5t-80 55t-55 80t-20.5 95.5zM128 512q0 -27 10 -50.5t27 -40.5t40.5 -27t50.5 -10h1024 v1280h-1024q-27 0 -50 -10t-40.5 -27.5t-27.5 -40.5t-10 -50v-1024zM256 1088q0 26 19 45t45 19h614l-147 147q-19 19 -19 45t19 45t45 19t45 -19l258 -257q9 -9 13 -21t4 -25q0 -25 -17 -42l-258 -257q-19 -19 -45 -19t-45 19t-19 45t19 45l147 147h-614q-26 0 -45 19 t-19 45zM1408 384h384q27 0 50 10t40.5 27.5t27.5 40.5t10 50v1024q0 26 -10 49.5t-27.5 41t-41 27.5t-49.5 10h-384v-1280z" />
<glyph unicode="&#xe127;" d="M0 507v1034q0 50 20.5 95.5t55 80t80 55t95.5 20.5h1546q50 0 95.5 -20.5t80 -55t55 -80t20.5 -95.5v-1034q0 -50 -20.5 -95.5t-55 -80t-80 -55t-95.5 -20.5h-1546q-50 0 -95.5 20.5t-80 55t-55 80t-20.5 95.5zM128 512q0 -27 10 -50.5t27 -40.5t40.5 -27t50.5 -10h1024 v1280h-1024q-27 0 -50 -10t-40.5 -27.5t-27.5 -40.5t-10 -50v-1024zM256 1088q0 26 19 45l256 256q19 19 45 19t45 -19t19 -45t-19 -45l-146 -147h613q26 0 45 -19t19 -45t-19 -45t-45 -19h-613l146 -147q19 -19 19 -45t-19 -45t-45 -19t-45 19l-256 256q-19 19 -19 45z M1408 384h384q27 0 50 10t40.5 27.5t27.5 40.5t10 50v1024q0 26 -10 49.5t-27.5 41t-41 27.5t-49.5 10h-384v-1280z" />
<glyph unicode="&#xe128;" d="M0 1024q0 141 36.5 272t103.5 244.5t160.5 207t207 160.5t244.5 103.5t272 36.5t272 -36.5t244.5 -103.5t207 -160.5t160.5 -207t103.5 -244.5t36.5 -272t-36.5 -272t-103.5 -244.5t-160.5 -207t-207 -160.5t-244.5 -103.5t-272 -36.5t-272 36.5t-244.5 103.5t-207 160.5 t-160.5 207t-103.5 244.5t-36.5 272zM128 1024q0 -121 32 -237t93 -220q5 28 9 56t9 56q8 42 29 73.5t51 55t66.5 38.5t75.5 23q13 3 35 7t43 12t36 20t15 30q0 13 -4 29.5t-9 33t-11 32.5t-10 29q-20 60 -20 121q0 101 55 160t151 78q41 8 74.5 20.5t57 33.5t36 52.5 t12.5 78.5q0 24 -5.5 54.5t-14 62t-19.5 60.5t-22 51q-9 18 -20 35t-20 35q-158 -31 -290.5 -112t-229.5 -198t-151 -263t-54 -307zM360 423q64 -71 140 -126t161 -92.5t176.5 -57t186.5 -19.5q125 0 245.5 34t226.5 100q-20 19 -39 42t-33.5 48t-23 52.5t-8.5 56.5 q0 42 16.5 78.5t41.5 67t54.5 57t54.5 50t41.5 44.5t16.5 41q0 18 -15.5 31.5t-32.5 13.5q-19 0 -37.5 -8.5t-36.5 -19t-36 -19t-35 -8.5q-33 0 -53 19.5t-27 50.5q-5 22 -8.5 54t-8.5 65t-11.5 63t-16.5 48q-29 52 -66.5 97.5t-69.5 95.5q-11 18 -16.5 33.5t-5.5 36.5 q0 29 12.5 53t33.5 44q28 26 57 51t57 51q57 53 109.5 109t103.5 114q-109 71 -234 108.5t-256 37.5h-15.5t-15.5 -1q17 -30 33 -70t28.5 -82.5t20 -85t7.5 -76.5q0 -47 -12.5 -92.5t-38.5 -84.5q-23 -34 -48.5 -56t-55.5 -37t-63.5 -24.5t-71.5 -16.5q-23 -5 -45.5 -15 t-35.5 -31q-9 -14 -12 -31t-3 -34q0 -32 8.5 -62.5t18.5 -60.5t18.5 -60t8.5 -62q0 -51 -21.5 -84.5t-55.5 -55t-76 -34t-83 -21.5q-18 -4 -37 -10.5t-35.5 -17t-29 -25t-15.5 -35.5zM1269 1351q17 -20 32 -41.5t30 -42.5q38 -53 59.5 -86t34 -64t20 -70t17.5 -103 q26 12 54.5 20t57.5 8q34 0 65 -14t55 -38t38 -55t14 -65q0 -39 -16.5 -72.5t-42 -63t-54.5 -56t-54.5 -51t-42 -48.5t-16.5 -49q0 -17 8.5 -34t20.5 -33t26 -30t26 -24q76 64 135 142t100 165.5t62.5 182.5t21.5 195q0 96 -20 189t-59 179.5t-95.5 163.5t-129.5 140 q-42 -48 -83 -92.5t-83.5 -87t-87 -83.5t-93.5 -82z" />
<glyph unicode="&#xe129;" d="M128 64v1792q0 26 19 45t45 19h1536q26 0 45 -19t19 -45q0 -19 -11 -36l-360 -540l360 -541q11 -16 11 -35q0 -26 -19 -45t-45 -19h-1472v-576q0 -26 -19 -45t-45 -19t-45 19t-19 45zM256 768h1352l-317 476q-11 17 -11 36q0 18 11 35l317 477h-1352v-1024z" />
<glyph unicode="&#xe7c1;" d="M128 64v1792q0 26 19 45t45 19h1536q26 0 45 -19t19 -45q0 -19 -11 -36l-360 -540l360 -541q11 -16 11 -35q0 -26 -19 -45t-45 -19h-1472v-576q0 -26 -19 -45t-45 -19t-45 19t-19 45zM256 768h1352l-317 476q-11 17 -11 36q0 18 11 35l317 477h-1352v-1024z" />
<glyph unicode="&#xe12a;" d="M0 441v1166q0 63 25.5 120t68 99.5t99.5 68t120 25.5h1422q63 0 120 -25.5t99.5 -68t68 -99.5t25.5 -120v-1166q0 -63 -25.5 -120t-68 -99.5t-99.5 -68t-120 -25.5h-1422q-63 0 -120 25.5t-99.5 68t-68 99.5t-25.5 120zM128 448q0 -39 15 -74t41.5 -61.5t61.5 -41.5 t74 -15h1408q39 0 74 15t61.5 41.5t41.5 61.5t15 74v1152q0 39 -15 74t-41.5 61.5t-61.5 41.5t-74 15h-1408q-39 0 -74 -15t-61.5 -41.5t-41.5 -61.5t-15 -74v-1152zM256 576q0 26 19 45t45 19h641q26 0 45 -19t19 -45t-19 -45t-45 -19h-641q-26 0 -45 19t-19 45zM256 832 q0 26 19 45t45 19h641q26 0 45 -19t19 -45t-19 -45t-45 -19h-641q-26 0 -45 19t-19 45zM256 1216v384q0 26 19 45t45 19h1408q26 0 45 -19t19 -45v-384q0 -26 -19 -45t-45 -19h-1408q-26 0 -45 19t-19 45zM384 1280h1280v256h-1280v-256zM1152 448v512q0 26 19 45t45 19h512 q26 0 45 -19t19 -45v-512q0 -26 -19 -45t-45 -19h-512q-26 0 -45 19t-19 45zM1280 512h384v384h-384v-384z" />
<glyph unicode="&#xe12b;" d="M0 1024q0 141 36.5 272t103 245t160 207.5t207.5 160t245 103t272 36.5t272 -36.5t245 -103t207.5 -160t160 -207.5t103 -245t36.5 -272q0 -142 -36.5 -272.5t-103 -244.5t-160 -207.5t-207.5 -160t-245 -103t-272 -36.5q-142 0 -272.5 36.5t-244.5 103t-207.5 160 t-160 207.5t-103 245t-36.5 272zM128 1024q0 -66 9.5 -129.5t27.5 -126.5h363q-9 64 -12.5 127.5t-3.5 128.5t3.5 128.5t12.5 127.5h-363q-18 -63 -27.5 -126.5t-9.5 -129.5zM214 640q37 -78 91 -150.5t121 -133t144 -107t161 -72.5q-73 103 -116.5 221t-66.5 242h-334z M214 1408h334q23 124 66.5 242t116.5 221q-84 -26 -161 -72t-143.5 -107t-121 -133t-91.5 -151zM640 1024q0 -65 3.5 -128.5t12.5 -127.5h736q9 64 12.5 127.5t3.5 128.5t-3.5 128.5t-12.5 127.5h-736q-9 -64 -12.5 -127.5t-3.5 -128.5zM679 640q8 -39 23 -92t37 -110 t50.5 -112.5t64 -99.5t78 -71t92.5 -27t92.5 27t78 71t64 99.5t50.5 112.5t37 110t23 92h-690zM679 1408h690q-8 39 -23 92t-37 110t-50.5 112.5t-64 99.5t-78 71t-92.5 27t-92.5 -27t-78 -71t-64 -99.5t-50.5 -112.5t-37 -110t-23 -92zM1317 177q84 26 161 72t143.5 107 t120.5 133t92 151h-334q-23 -124 -66.5 -242t-116.5 -221zM1317 1871q73 -103 116.5 -221t66.5 -242h334q-38 79 -92 151t-120.5 133t-143.5 107t-161 72zM1520 768h363q18 63 27.5 126.5t9.5 129.5t-9.5 129.5t-27.5 126.5h-363q9 -64 12.5 -127.5t3.5 -128.5t-3.5 -128.5 t-12.5 -127.5z" />
<glyph unicode="&#xe12c;" d="M0 704v640q0 26 19 45t45 19t45 -19t19 -45v-640q0 -26 -19 -45t-45 -19t-45 19t-19 45zM256 704v640q0 26 19 45t45 19t45 -19t19 -45v-640q0 -26 -19 -45t-45 -19t-45 19t-19 45zM512 192v256q0 26 19 45t45 19t45 -19t19 -45v-256q0 -26 -19 -45t-45 -19t-45 19 t-19 45zM512 832v384q0 39 15 74t41.5 61.5t61.5 41.5t74 15h640q39 0 74 -15t61.5 -41.5t41.5 -61.5t15 -74v-384q0 -39 -15 -74t-41.5 -61.5t-61.5 -41.5t-74 -15h-640q-39 0 -74 15t-61.5 41.5t-41.5 61.5t-15 74zM512 1600v256q0 26 19 45t45 19t45 -19t19 -45v-256 q0 -26 -19 -45t-45 -19t-45 19t-19 45zM640 832q0 -26 19 -45t45 -19h640q26 0 45 19t19 45v384q0 26 -19 45t-45 19h-640q-26 0 -45 -19t-19 -45v-384zM1408 192v256q0 26 19 45t45 19t45 -19t19 -45v-256q0 -26 -19 -45t-45 -19t-45 19t-19 45zM1408 1600v256q0 26 19 45 t45 19t45 -19t19 -45v-256q0 -26 -19 -45t-45 -19t-45 19t-19 45zM1664 704v640q0 26 19 45t45 19t45 -19t19 -45v-640q0 -26 -19 -45t-45 -19t-45 19t-19 45zM1920 704v640q0 26 19 45t45 19t45 -19t19 -45v-640q0 -26 -19 -45t-45 -19t-45 19t-19 45z" />
<glyph unicode="&#xe12d;" d="M0 1408v256q0 53 37 90q38 38 91 38h128q26 0 49.5 -10t41 -27.5t27.5 -41t10 -49.5v-256q0 -27 -10 -50t-27.5 -40.5t-40.5 -27.5t-50 -10v-725q0 -39 15 -74t41.5 -61.5t61.5 -41.5t74 -15t76 16t64 44q-35 27 -55.5 67.5t-20.5 85.5v768q0 39 15 74t41.5 61.5 t61.5 41.5t74 15h152l75 150q24 48 71 77t101 29h354q54 0 101 -29t71 -77l75 -150h152q39 0 74 -15t61.5 -41.5t41.5 -61.5t15 -74v-768q0 -39 -15 -74t-41.5 -61.5t-61.5 -41.5t-74 -15h-1137q-47 -73 -119.5 -111t-158.5 -38q-65 0 -122 26t-99.5 70t-67 102t-24.5 122 v725q-27 0 -50.5 10t-40.5 27t-27 40.5t-10 50.5zM128 1408h128v256h-128v-256zM640 576q0 -26 19 -45t45 -19h1152q26 0 45 19t19 45v768q0 26 -19 45t-45 19h-152q-41 0 -68 19t-45.5 47.5t-31.5 61.5t-26.5 61.5t-31 47.5t-44.5 19h-354q-27 0 -44 -19t-31 -47.5 t-27 -61.5t-31.5 -61.5t-45.5 -47.5t-68 -19h-152q-26 0 -45 -19t-19 -45v-768zM896 1024q0 80 30 150t82 122t122 82t150 30q82 0 152.5 -30.5t122 -84t80.5 -125t29 -152.5q0 -78 -31 -146.5t-83.5 -119.5t-122.5 -80.5t-147 -29.5q-80 0 -150 30t-122 82t-82 122t-30 150 zM1024 1024q0 -53 20.5 -99.5t55 -81t81 -55t99.5 -20.5q54 0 100.5 20.5t81 56t54.5 83t20 101.5q0 52 -21 97.5t-56 79.5t-81.5 54t-97.5 20q-53 0 -99.5 -20.5t-81 -55t-55 -81.5t-20.5 -99z" />
<glyph unicode="&#xe12e;" d="M128 1216q0 97 25 187.5t71 168.5t110 142t142 110t168 71t188 25q97 0 187 -25t168.5 -71t142.5 -110t110 -142.5t71 -168.5t25 -187q0 -124 -42 -239.5t-121 -211.5l528 -528q19 -19 19 -45t-19 -45t-45 -19t-45 19l-528 528q-96 -79 -211.5 -121t-239.5 -42 q-147 0 -275 55t-223.5 150.5t-150.5 223.5t-55 275zM256 1216q0 -120 45 -225t123 -183t183 -123t225 -45q119 0 224 45.5t183 123.5t123.5 183t45.5 224q0 79 -20.5 152.5t-58 137.5t-90.5 117t-117 90.5t-137.5 58t-152.5 20.5q-119 0 -224 -45.5t-183 -123.5 t-123.5 -183t-45.5 -224zM448 1216q0 26 19 45t45 19h256v256q0 26 19 45t45 19t45 -19t19 -45v-256h256q26 0 45 -19t19 -45t-19 -45t-45 -19h-256v-256q0 -26 -19 -45t-45 -19t-45 19t-19 45v256h-256q-26 0 -45 19t-19 45z" />
<glyph unicode="&#xe12f;" d="M0 1088q0 27 10 50t27.5 40.5t40.5 27.5t50 10q26 0 49.5 -10t41 -27.5t27.5 -41t10 -49.5q0 -27 -10 -50t-27.5 -40.5t-40.5 -27.5t-50 -10t-50.5 10t-40.5 27t-27 40.5t-10 50.5zM0 1600q0 27 10 50t27.5 40.5t40.5 27.5t50 10q26 0 49.5 -10t41 -27.5t27.5 -41 t10 -49.5q0 -27 -10 -50t-27.5 -40.5t-40.5 -27.5t-50 -10t-50.5 10t-40.5 27t-27 40.5t-10 50.5zM512 576q0 27 10 50t27.5 40.5t40.5 27.5t50 10q26 0 49.5 -10t41 -27.5t27.5 -41t10 -49.5q0 -27 -10 -50t-27.5 -40.5t-40.5 -27.5t-50 -10t-50.5 10t-40.5 27t-27 40.5 t-10 50.5zM512 1088q0 26 19 45t45 19h1408q26 0 45 -19t19 -45t-19 -45t-45 -19h-1408q-26 0 -45 19t-19 45zM512 1600q0 26 19 45t45 19h1408q26 0 45 -19t19 -45t-19 -45t-45 -19h-1408q-26 0 -45 19t-19 45zM1024 576q0 26 19 45t45 19h896q26 0 45 -19t19 -45t-19 -45 t-45 -19h-896q-26 0 -45 19t-19 45z" />
<glyph unicode="&#xe130;" d="M256 256v1536q0 53 20 99.5t55 81.5t81.5 55t99.5 20h496q51 0 98 -19.5t83 -55.5l528 -528q36 -36 55.5 -83t19.5 -98v-1008q0 -53 -20 -99.5t-55 -81.5t-81.5 -55t-99.5 -20h-1024q-53 0 -99.5 20t-81.5 55t-55 81.5t-20 99.5zM384 256q0 -27 10 -50.5t27 -40.5 t40.5 -27t50.5 -10h1024q27 0 50 10t40.5 27.5t27.5 40.5t10 50v1008v8t-1 8h-383q-53 0 -99.5 20t-81.5 55t-55 81.5t-20 99.5v383q-4 1 -8 1h-8h-496q-27 0 -50 -10t-40.5 -27.5t-27.5 -40.5t-10 -50v-1536zM1152 1536q0 -27 10 -50.5t27 -40.5t40.5 -27t50.5 -10h294 l-422 422v-294z" />
<glyph unicode="&#xe7c3;" d="M256 256v1536q0 53 20 99.5t55 81.5t81.5 55t99.5 20h496q51 0 98 -19.5t83 -55.5l528 -528q36 -36 55.5 -83t19.5 -98v-1008q0 -53 -20 -99.5t-55 -81.5t-81.5 -55t-99.5 -20h-1024q-53 0 -99.5 20t-81.5 55t-55 81.5t-20 99.5zM384 256q0 -27 10 -50.5t27 -40.5 t40.5 -27t50.5 -10h1024q27 0 50 10t40.5 27.5t27.5 40.5t10 50v1008v8t-1 8h-383q-53 0 -99.5 20t-81.5 55t-55 81.5t-20 99.5v383q-4 1 -8 1h-8h-496q-27 0 -50 -10t-40.5 -27.5t-27.5 -40.5t-10 -50v-1536zM1152 1536q0 -27 10 -50.5t27 -40.5t40.5 -27t50.5 -10h294 l-422 422v-294z" />
<glyph unicode="&#xe160;" d="M256 256v1536q0 53 20 99.5t55 81.5t81.5 55t99.5 20h496q51 0 98 -19.5t83 -55.5l528 -528q36 -36 55.5 -83t19.5 -98v-1008q0 -53 -20 -99.5t-55 -81.5t-81.5 -55t-99.5 -20h-1024q-53 0 -99.5 20t-81.5 55t-55 81.5t-20 99.5zM384 256q0 -27 10 -50.5t27 -40.5 t40.5 -27t50.5 -10h1024q27 0 50 10t40.5 27.5t27.5 40.5t10 50v1008v8t-1 8h-383q-53 0 -99.5 20t-81.5 55t-55 81.5t-20 99.5v383q-4 1 -8 1h-8h-496q-27 0 -50 -10t-40.5 -27.5t-27.5 -40.5t-10 -50v-1536zM1152 1536q0 -27 10 -50.5t27 -40.5t40.5 -27t50.5 -10h294 l-422 422v-294z" />
<glyph unicode="&#xe131;" d="M0 64v512q0 22 8.5 34.5t22 19t30.5 8.5t34 2h33v128q0 53 20 100t54.5 81.5t81.5 54.5t100 20t100 -20t81.5 -54.5t54.5 -81.5t20 -100v-128h34q17 0 34 -2t30.5 -8.5t21.5 -19.5t8 -34v-512q0 -26 -19 -45t-45 -19h-640q-26 0 -45 19t-19 45zM256 320q0 -27 10 -50.5 t27 -40.5t40.5 -27t50.5 -10t50 10t40.5 27.5t27.5 40.5t10 50q0 26 -10 49.5t-27.5 41t-41 27.5t-49.5 10q-27 0 -50 -10t-40.5 -27.5t-27.5 -40.5t-10 -50zM256 640h256v128q0 27 -10 50t-27.5 40.5t-40.5 27.5t-50 10t-50 -10t-40.5 -27.5t-27.5 -40.5t-10 -50v-128z M256 1130v667q0 50 20.5 95.5t55 80t80 55t95.5 20.5h501q51 0 98 -19.5t83 -55.5l528 -528q36 -36 55.5 -83t19.5 -98v-1013q0 -50 -20.5 -95.5t-55 -80t-80 -55t-95.5 -20.5h-645v128h640q27 0 50 10t40.5 27.5t27.5 40.5t10 50v1008v8t-1 8h-388q-52 0 -97.5 21t-79.5 56 t-54 81.5t-20 97.5v383q-4 1 -8 1h-8h-496q-27 0 -50 -10t-40.5 -27.5t-27.5 -40.5t-10 -50v-640q-68 0 -128 -22zM1152 1536q0 -27 10 -50.5t27 -40.5t40.5 -27t50.5 -10h294l-422 422v-294z" />
<glyph unicode="&#xe132;" d="M256 251v1546q0 50 20.5 95.5t55 80t80 55t95.5 20.5h517v-517q0 -52 21 -97.5t56 -79.5t81.5 -54t97.5 -20h512v-1029q0 -50 -20.5 -95.5t-55 -80t-80 -55t-95.5 -20.5h-1034q-50 0 -95.5 20.5t-80 55t-55 80t-20.5 95.5zM1152 1536v475l603 -603h-475q-27 0 -50.5 10 t-40.5 27t-27 40.5t-10 50.5z" />
<glyph unicode="&#xe133;" d="M0 320q0 26 19 45t45 19t45 -19l83 -82l339 338q19 19 45 19t45 -19t19 -45t-19 -45l-384 -384q-19 -19 -45 -19t-45 19l-128 128q-19 19 -19 45zM0 1600q0 26 19 45t45 19t45 -19l83 -82l339 338q19 19 45 19t45 -19t19 -45t-19 -45l-384 -384q-19 -19 -45 -19t-45 19 l-128 128q-19 19 -19 45zM768 320q0 26 19 45t45 19h1152q26 0 45 -19t19 -45t-19 -45t-45 -19h-1152q-26 0 -45 19t-19 45zM768 960q0 26 19 45t45 19h1152q26 0 45 -19t19 -45t-19 -45t-45 -19h-1152q-26 0 -45 19t-19 45zM768 1600q0 26 19 45t45 19h1152q26 0 45 -19 t19 -45t-19 -45t-45 -19h-1152q-26 0 -45 19t-19 45z" />
<glyph unicode="&#xe134;" d="M0 697v910q0 63 25.5 120t68 99.5t99.5 68t120 25.5h1422q63 0 120 -25.5t99.5 -68t68 -99.5t25.5 -120v-910q0 -65 -26 -122t-70 -99.5t-102 -67t-122 -24.5h-620l-513 -359q-33 -24 -76 -24q-28 0 -52.5 10.5t-43 28.5t-29 42.5t-10.5 52.5v249h-71q-63 0 -120 25.5 t-99.5 68t-68 99.5t-25.5 120zM128 704q0 -39 15 -74t41.5 -61.5t61.5 -41.5t74 -15h128q26 0 45 -19t19 -45v-313l539 365q16 12 37 12h640q39 0 74 15t61.5 41.5t41.5 61.5t15 74v896q0 39 -15 74t-41.5 61.5t-61.5 41.5t-74 15h-1408q-39 0 -74 -15t-61.5 -41.5 t-41.5 -61.5t-15 -74v-896z" />
<glyph unicode="&#xe206;" d="M0 697v910q0 63 25.5 120t68 99.5t99.5 68t120 25.5h1422q63 0 120 -25.5t99.5 -68t68 -99.5t25.5 -120v-910q0 -65 -26 -122t-70 -99.5t-102 -67t-122 -24.5h-620l-513 -359q-33 -24 -76 -24q-28 0 -52.5 10.5t-43 28.5t-29 42.5t-10.5 52.5v249h-71q-63 0 -120 25.5 t-99.5 68t-68 99.5t-25.5 120zM128 704q0 -39 15 -74t41.5 -61.5t61.5 -41.5t74 -15h128q26 0 45 -19t19 -45v-313l539 365q16 12 37 12h640q39 0 74 15t61.5 41.5t41.5 61.5t15 74v896q0 39 -15 74t-41.5 61.5t-61.5 41.5t-74 15h-1408q-39 0 -74 -15t-61.5 -41.5 t-41.5 -61.5t-15 -74v-896z" />
<glyph unicode="&#xe135;" d="M64 384v1152q0 39 15 74t41.5 61.5t61.5 41.5t74 15h1536q39 0 74 -15t61.5 -41.5t41.5 -61.5t15 -74v-1152q0 -39 -15 -74t-41.5 -61.5t-61.5 -41.5t-74 -15h-1536q-39 0 -74 15t-61.5 41.5t-41.5 61.5t-15 74z" />
<glyph unicode="&#xe20b;" d="M64 384v1152q0 39 15 74t41.5 61.5t61.5 41.5t74 15h1536q39 0 74 -15t61.5 -41.5t41.5 -61.5t15 -74v-1152q0 -39 -15 -74t-41.5 -61.5t-61.5 -41.5t-74 -15h-1536q-39 0 -74 15t-61.5 41.5t-41.5 61.5t-15 74z" />
<glyph unicode="&#xe136;" d="M-1 768v48q0 43 16.5 80.5t45 66t66 45t80.5 16.5h608q43 0 80.5 -16.5t66 -45t45 -66t16.5 -80.5v-48q0 -64 -22.5 -117.5t-61 -96t-90 -74.5t-108 -53.5t-116 -32t-114.5 -10.5t-114.5 10.5t-116 32t-108 53.5t-90 75t-61 96t-22.5 117zM127 768q0 -52 29.5 -95.5 t69.5 -73.5q29 -22 64 -37.5t72.5 -25.5t75.5 -15t74 -5q73 0 149 19.5t136 63.5q41 30 69.5 73.5t28.5 95.5v48q0 33 -23.5 56.5t-56.5 23.5h-608q-16 0 -30.5 -6.5t-25.5 -17.5t-17.5 -25.5t-6.5 -30.5v-48zM191 1479q0 65 26 122t70 99.5t102 67t122 24.5q67 0 125 -25 t101.5 -68.5t68.5 -101.5t25 -125t-25 -125t-68.5 -101.5t-101.5 -68.5t-125 -25q-69 0 -127.5 25.5t-101.5 70t-67 104t-24 127.5zM319 1472q0 -39 15 -74t41.5 -61.5t61.5 -41.5t74 -15t74 15t61.5 41.5t41.5 61.5t15 74t-15 74t-41.5 61.5t-61.5 41.5t-74 15t-74 -15 t-61.5 -41.5t-41.5 -61.5t-15 -74zM1152 576q0 26 19 45t45 19h768q26 0 45 -19t19 -45t-19 -45t-45 -19h-768q-26 0 -45 19t-19 45zM1152 1088q0 26 19 45t45 19h768q26 0 45 -19t19 -45t-19 -45t-45 -19h-768q-26 0 -45 19t-19 45zM1152 1600q0 26 19 45t45 19h768 q26 0 45 -19t19 -45t-19 -45t-45 -19h-768q-26 0 -45 19t-19 45z" />
<glyph unicode="&#xe137;" d="M155 1258q0 37 2.5 79t16.5 77q22 57 68 103.5t96 78.5q80 52 174 88t193.5 58t200 32t194.5 10q74 0 157 -6.5t168 -22.5t168 -41.5t158 -63.5t137.5 -89.5t106.5 -118.5q21 -32 27.5 -62t6.5 -68q0 -56 -6.5 -118.5t-27.5 -117t-61.5 -94t-109.5 -49.5 q-21 -3 -42.5 -3.5t-43.5 -0.5q-55 0 -109.5 4t-101 21.5t-82 53t-52.5 98.5q-3 12 -8 42t-12 63t-14.5 59.5t-14.5 30.5q-16 9 -48.5 14.5t-69.5 9t-72 5t-55 1.5q-25 0 -58.5 -1t-68 -4t-67 -9t-54.5 -15q-14 -6 -21.5 -14.5t-11.5 -22.5q-11 -44 -22 -87t-22 -87 q-15 -60 -52 -95.5t-85 -54t-103 -24.5t-107 -6q-87 0 -140 26t-82.5 72.5t-39.5 110t-10 138.5zM282 1253q0 -32 2 -65t9 -65q6 -28 18.5 -44.5t30 -25.5t39.5 -11.5t47 -2.5q40 0 83 3.5t81 17.5q44 16 58 63q13 43 22.5 86.5t21.5 87.5q14 48 45 81.5t79 47.5 q67 20 138 26t141 6q31 0 69 -1.5t76.5 -5.5t75 -11t65.5 -17q38 -14 61.5 -41t35.5 -65q14 -45 20 -90.5t18 -90.5q16 -56 76 -68q35 -8 72.5 -9.5t72.5 -1.5h23q12 0 24.5 0.5t23.5 2.5q28 5 43 20.5t23 41.5q14 48 19.5 97.5t5.5 99.5q0 14 -2 26t-10 25 q-37 57 -92.5 100t-122.5 75t-141.5 53t-150 34t-148 18.5t-134.5 5.5q-57 0 -123.5 -4.5t-136 -15t-139.5 -26.5t-135 -40t-121 -56t-98 -73q-17 -16 -32 -36.5t-23 -42.5q-4 -11 -6 -25t-3 -29t-1 -29.5v-25.5zM768 576q0 26 19 45t45 19t45 -19l147 -146v485q0 26 19 45 t45 19t45 -19t19 -45v-485l147 146q19 19 45 19t45 -19t19 -45t-19 -45l-253 -253q-11 -11 -21.5 -16.5t-26.5 -5.5t-26.5 5.5t-21.5 16.5l-253 253q-19 19 -19 45z" />
<glyph unicode="&#xe138;" d="M128 320v384q0 39 15 74t41.5 61.5t61.5 41.5t74 15h384q39 0 74 -15t61.5 -41.5t41.5 -61.5t15 -74v-384q0 -39 -15 -74t-41.5 -61.5t-61.5 -41.5t-74 -15h-384q-39 0 -74 15t-61.5 41.5t-41.5 61.5t-15 74zM128 1344v384q0 39 15 74t41.5 61.5t61.5 41.5t74 15h384 q39 0 74 -15t61.5 -41.5t41.5 -61.5t15 -74v-384q0 -39 -15 -74t-41.5 -61.5t-61.5 -41.5t-74 -15h-384q-39 0 -74 15t-61.5 41.5t-41.5 61.5t-15 74zM256 320q0 -26 19 -45t45 -19h384q26 0 45 19t19 45v384q0 26 -19 45t-45 19h-384q-26 0 -45 -19t-19 -45v-384zM256 1344 q0 -26 19 -45t45 -19h384q26 0 45 19t19 45v384q0 26 -19 45t-45 19h-384q-26 0 -45 -19t-19 -45v-384zM1152 320v384q0 39 15 74t41.5 61.5t61.5 41.5t74 15h384q39 0 74 -15t61.5 -41.5t41.5 -61.5t15 -74v-384q0 -39 -15 -74t-41.5 -61.5t-61.5 -41.5t-74 -15h-384 q-39 0 -74 15t-61.5 41.5t-41.5 61.5t-15 74zM1152 1344v384q0 39 15 74t41.5 61.5t61.5 41.5t74 15h384q39 0 74 -15t61.5 -41.5t41.5 -61.5t15 -74v-384q0 -39 -15 -74t-41.5 -61.5t-61.5 -41.5t-74 -15h-384q-39 0 -74 15t-61.5 41.5t-41.5 61.5t-15 74zM1280 320 q0 -26 19 -45t45 -19h384q26 0 45 19t19 45v384q0 26 -19 45t-45 19h-384q-26 0 -45 -19t-19 -45v-384zM1280 1344q0 -26 19 -45t45 -19h384q26 0 45 19t19 45v384q0 26 -19 45t-45 19h-384q-26 0 -45 -19t-19 -45v-384z" />
<glyph unicode="&#xe154;" d="M128 320v384q0 39 15 74t41.5 61.5t61.5 41.5t74 15h384q39 0 74 -15t61.5 -41.5t41.5 -61.5t15 -74v-384q0 -39 -15 -74t-41.5 -61.5t-61.5 -41.5t-74 -15h-384q-39 0 -74 15t-61.5 41.5t-41.5 61.5t-15 74zM128 1344v384q0 39 15 74t41.5 61.5t61.5 41.5t74 15h384 q39 0 74 -15t61.5 -41.5t41.5 -61.5t15 -74v-384q0 -39 -15 -74t-41.5 -61.5t-61.5 -41.5t-74 -15h-384q-39 0 -74 15t-61.5 41.5t-41.5 61.5t-15 74zM256 320q0 -26 19 -45t45 -19h384q26 0 45 19t19 45v384q0 26 -19 45t-45 19h-384q-26 0 -45 -19t-19 -45v-384zM256 1344 q0 -26 19 -45t45 -19h384q26 0 45 19t19 45v384q0 26 -19 45t-45 19h-384q-26 0 -45 -19t-19 -45v-384zM1152 320v384q0 39 15 74t41.5 61.5t61.5 41.5t74 15h384q39 0 74 -15t61.5 -41.5t41.5 -61.5t15 -74v-384q0 -39 -15 -74t-41.5 -61.5t-61.5 -41.5t-74 -15h-384 q-39 0 -74 15t-61.5 41.5t-41.5 61.5t-15 74zM1152 1344v384q0 39 15 74t41.5 61.5t61.5 41.5t74 15h384q39 0 74 -15t61.5 -41.5t41.5 -61.5t15 -74v-384q0 -39 -15 -74t-41.5 -61.5t-61.5 -41.5t-74 -15h-384q-39 0 -74 15t-61.5 41.5t-41.5 61.5t-15 74zM1280 320 q0 -26 19 -45t45 -19h384q26 0 45 19t19 45v384q0 26 -19 45t-45 19h-384q-26 0 -45 -19t-19 -45v-384zM1280 1344q0 -26 19 -45t45 -19h384q26 0 45 19t19 45v384q0 26 -19 45t-45 19h-384q-26 0 -45 -19t-19 -45v-384z" />
<glyph unicode="&#xe139;" d="M512 1600q0 92 35.5 173.5t96.5 142.5t142.5 96.5t173.5 35.5q90 0 171 -35t142.5 -95t98 -140t36.5 -170q0 -84 -28.5 -161t-79.5 -137.5t-121.5 -101t-154.5 -51.5v-1093q0 -26 -19 -45t-45 -19t-45 19t-19 45v1093q-82 10 -152.5 50t-122 100t-80.5 135.5t-29 157.5z M640 1600q0 -67 25 -125t68.5 -101.5t101.5 -68.5t125 -25q69 0 127.5 25.5t101.5 70t67 104t24 127.5q0 65 -26 122t-70 99.5t-102 67t-122 24.5q-67 0 -125 -25t-101.5 -68.5t-68.5 -101.5t-25 -125z" />
<glyph unicode="&#xe13a;" d="M256 1517q0 86 17 163t55 140.5t98.5 112t146.5 76.5q39 13 80 26t83 13q37 0 72 -11t65 -30.5t54 -47.5t39 -62q21 -48 41.5 -94t41.5 -94q28 -62 28 -131q0 -51 -13 -92t-35.5 -76.5t-53 -67t-65.5 -63.5q-16 -15 -33.5 -29.5t-31.5 -30.5q-6 -7 -7.5 -15.5t-1.5 -16.5 q0 -21 13.5 -61t35.5 -88t50 -98.5t57.5 -91.5t58 -67t50.5 -26q2 0 3.5 0.5t3.5 0.5l258 80q27 9 55 9q46 0 86.5 -21t66.5 -59l170 -241q48 -68 48 -150q0 -45 -11.5 -79t-32 -63t-47 -55t-56.5 -54q-63 -59 -139.5 -91t-163.5 -32q-85 0 -164 32q-111 45 -207 119.5 t-179 166t-153 194t-127 203.5q-51 90 -97.5 187t-81.5 199t-56 206.5t-21 209.5zM384 1519q0 -96 20 -193t53 -191.5t76.5 -184.5t90.5 -172q51 -91 114.5 -185t138.5 -179t162.5 -154t186.5 -109q57 -23 116 -23q46 0 84.5 12t72.5 33t65 48.5t61 59.5q19 20 29 42.5 t10 50.5q0 43 -24 76l-171 241q-18 26 -48 26q-8 0 -17 -3l-258 -80q-22 -7 -48 -7q-35 0 -67.5 16t-59.5 38q-26 20 -55 56.5t-58.5 82t-56.5 96.5t-48 101t-33.5 94.5t-12.5 77.5q0 44 18 76.5t45 60.5t58 53t58 53.5t45 63.5t18 81q0 41 -17 80l-83 188q-14 33 -45.5 54 t-67.5 21q-32 0 -64 -11.5t-61 -21.5q-65 -22 -108.5 -58t-69.5 -84t-37.5 -105t-11.5 -121z" />
<glyph unicode="&#xe13b;" d="M0 64q0 6 3 21.5t7 33t8 32.5t5 20q23 94 47.5 187.5t47.5 187.5q-59 111 -88.5 232t-29.5 246q0 142 36.5 273t103 244.5t160 207t207 160t244.5 103t273 36.5q141 0 272 -36.5t245 -103t207.5 -160t160 -207.5t103 -245t36.5 -272q0 -142 -36.5 -273t-103 -244.5 t-160 -207t-207 -160t-244.5 -103t-273 -36.5q-122 0 -241 28.5t-228 85.5l-476 -112q-10 -2 -15 -2q-27 0 -45.5 18.5t-18.5 45.5zM128 1024q0 -62 8 -117.5t23 -108.5t36 -105t47 -107q4 -8 6.5 -16t2.5 -17q0 -6 -3.5 -23.5t-8 -36.5t-9 -36.5t-6.5 -23.5 q-17 -72 -35.5 -142t-36.5 -141q14 3 47.5 11.5t76 19t89.5 22t88 21t71 15.5t39 6q17 0 31 -7q55 -26 106 -46.5t102 -34.5t105.5 -21.5t116.5 -7.5q124 0 238.5 32t214 90.5t181 140t140 181t90.5 214t32 238.5q0 123 -32 237.5t-90.5 214t-140.5 181.5t-181.5 140.5 t-214 90.5t-237.5 32q-124 0 -238.5 -32t-214 -90.5t-181 -140t-140 -181t-90.5 -214t-32 -238.5zM640 687v674q0 26 10 49t27.5 40.5t40.5 28t49 10.5q36 0 66 -18l577 -336q29 -17 46 -47.5t17 -63.5t-17 -63.5t-46 -47.5l-577 -336q-14 -8 -31 -13t-34 -5q-26 0 -49.5 10 t-41 27.5t-27.5 41t-10 49.5zM768 687l577 337l-577 337v-674z" />
<glyph unicode="&#xe13c;" d="M256 576q0 15 5.5 26t16.5 22l509 509q19 19 45 19t45 -19t19 -45t-19 -45l-402 -403h1253q26 0 45 -19t19 -45t-19 -45t-45 -19h-1253l402 -403q19 -19 19 -45t-19 -45t-45 -19t-45 19l-509 509q-11 11 -16.5 22t-5.5 26zM256 1472q0 26 19 45t45 19h1254l-403 403 q-19 19 -19 45t19 45t45 19t45 -19l509 -509q11 -11 16.5 -22t5.5 -26t-5.5 -26t-16.5 -22l-509 -509q-19 -19 -45 -19t-45 19t-19 45t19 45l403 403h-1254q-26 0 -45 19t-19 45z" />
<glyph unicode="&#xe13d;" d="M128 640q0 51 20 97.5t54 81.5t79.5 56t97.5 21h1285q51 0 97.5 -20t81.5 -54t56 -79.5t21 -97.5q0 -123 -38 -219t-103 -167.5t-152.5 -121t-187 -80t-206 -44t-209.5 -13.5q-99 0 -197 10.5t-193 37.5q-108 31 -200.5 83t-160.5 125.5t-106.5 169t-38.5 214.5zM256 640 q0 -103 34 -180.5t92 -134.5t134.5 -95t162 -60.5t174.5 -32t171 -9.5t171 9.5t174.5 32t162 60.5t134.5 95t92 135t34 180q0 26 -10 49.5t-27.5 41t-41 27.5t-49.5 10h-1280q-27 0 -50 -10t-40.5 -27.5t-27.5 -40.5t-10 -50zM512 1546q0 104 41.5 195.5t112 159.5 t163 107.5t195.5 39.5q106 0 199.5 -40t163 -109.5t109.5 -163t40 -199.5t-40 -199.5t-109.5 -163t-163 -109.5t-199.5 -40q-109 0 -202.5 41t-162.5 112t-108 166t-39 203zM640 1536q0 -80 30 -150t82 -122t122 -82t150 -30q82 0 152.5 30.5t122 84t80.5 125t29 152.5 q0 78 -31 146.5t-83.5 119.5t-122.5 80.5t-147 29.5q-80 0 -150 -30t-122 -82t-82 -122t-30 -150z" />
<glyph unicode="&#xe2af;" d="M128 640q0 51 20 97.5t54 81.5t79.5 56t97.5 21h1285q51 0 97.5 -20t81.5 -54t56 -79.5t21 -97.5q0 -123 -38 -219t-103 -167.5t-152.5 -121t-187 -80t-206 -44t-209.5 -13.5q-99 0 -197 10.5t-193 37.5q-108 31 -200.5 83t-160.5 125.5t-106.5 169t-38.5 214.5zM256 640 q0 -103 34 -180.5t92 -134.5t134.5 -95t162 -60.5t174.5 -32t171 -9.5t171 9.5t174.5 32t162 60.5t134.5 95t92 135t34 180q0 26 -10 49.5t-27.5 41t-41 27.5t-49.5 10h-1280q-27 0 -50 -10t-40.5 -27.5t-27.5 -40.5t-10 -50zM512 1546q0 104 41.5 195.5t112 159.5 t163 107.5t195.5 39.5q106 0 199.5 -40t163 -109.5t109.5 -163t40 -199.5t-40 -199.5t-109.5 -163t-163 -109.5t-199.5 -40q-109 0 -202.5 41t-162.5 112t-108 166t-39 203zM640 1536q0 -80 30 -150t82 -122t122 -82t150 -30q82 0 152.5 30.5t122 84t80.5 125t29 152.5 q0 78 -31 146.5t-83.5 119.5t-122.5 80.5t-147 29.5q-80 0 -150 -30t-122 -82t-82 -122t-30 -150z" />
<glyph unicode="&#xe13e;" d="M0 507v1029q0 51 20 97.5t54 81.5t79.5 56t97.5 21h517v-128h-512q-27 0 -50 -10t-40.5 -27.5t-27.5 -40.5t-10 -50v-1024q0 -27 10 -50.5t27 -40.5t40.5 -27t50.5 -10h512v-128h-512q-51 0 -97.5 20t-81.5 54t-56 79.5t-21 97.5zM640 64q0 26 19 45t45 19h192v1792h-192 q-26 0 -45 19t-19 45t19 45t45 19h512q26 0 45 -19t19 -45t-19 -45t-45 -19h-192v-1792h192q26 0 45 -19t19 -45t-19 -45t-45 -19h-512q-26 0 -45 19t-19 45zM1152 256v128h640q27 0 50 10t40.5 27.5t27.5 40.5t10 50v1024q0 26 -10 49.5t-27.5 41t-41 27.5t-49.5 10h-640 v128h645q50 0 95.5 -20.5t80 -55t55 -80t20.5 -95.5v-1029q0 -51 -20 -97.5t-54 -81.5t-79.5 -56t-97.5 -21h-645z" />
<glyph unicode="&#xe13f;" d="M0 832v512q0 39 15 74t41.5 61.5t61.5 41.5t74 15h512q39 0 74 -15t61.5 -41.5t41.5 -61.5t15 -74v-512q0 -39 -15 -74t-41.5 -61.5t-61.5 -41.5t-74 -15h-512q-39 0 -74 15t-61.5 41.5t-41.5 61.5t-15 74zM128 832q0 -26 19 -45t45 -19h512q26 0 45 19t19 45v512 q0 26 -19 45t-45 19h-512q-26 0 -45 -19t-19 -45v-512zM1024 1088q0 26 19 45l384 384q19 19 45 19t45 -19t19 -45t-19 -45l-274 -275h741q26 0 45 -19t19 -45t-19 -45t-45 -19h-741l274 -275q9 -10 14 -20.5t5 -24.5q0 -26 -19 -45t-45 -19t-45 19l-384 384q-19 19 -19 45z " />
<glyph unicode="&#xe177;" d="M0 832v512q0 39 15 74t41.5 61.5t61.5 41.5t74 15h512q39 0 74 -15t61.5 -41.5t41.5 -61.5t15 -74v-512q0 -39 -15 -74t-41.5 -61.5t-61.5 -41.5t-74 -15h-512q-39 0 -74 15t-61.5 41.5t-41.5 61.5t-15 74zM128 832q0 -26 19 -45t45 -19h512q26 0 45 19t19 45v512 q0 26 -19 45t-45 19h-512q-26 0 -45 -19t-19 -45v-512zM1024 1088q0 26 19 45l384 384q19 19 45 19t45 -19t19 -45t-19 -45l-274 -275h741q26 0 45 -19t19 -45t-19 -45t-45 -19h-741l274 -275q9 -10 14 -20.5t5 -24.5q0 -26 -19 -45t-45 -19t-45 19l-384 384q-19 19 -19 45z " />
<glyph unicode="&#xe140;" d="M0 1088q0 26 19 45t45 19h742l-275 275q-19 19 -19 45t19 45t45 19t45 -19l384 -384q19 -19 19 -45t-19 -45l-384 -384q-19 -19 -45 -19t-45 19t-19 45t19 45l275 275h-742q-26 0 -45 19t-19 45zM1152 832v512q0 39 15 74t41.5 61.5t61.5 41.5t74 15h512q39 0 74 -15 t61.5 -41.5t41.5 -61.5t15 -74v-512q0 -39 -15 -74t-41.5 -61.5t-61.5 -41.5t-74 -15h-512q-39 0 -74 15t-61.5 41.5t-41.5 61.5t-15 74zM1280 832q0 -26 19 -45t45 -19h512q26 0 45 19t19 45v512q0 26 -19 45t-45 19h-512q-26 0 -45 -19t-19 -45v-512z" />
<glyph unicode="&#xe176;" d="M0 1088q0 26 19 45t45 19h742l-275 275q-19 19 -19 45t19 45t45 19t45 -19l384 -384q19 -19 19 -45t-19 -45l-384 -384q-19 -19 -45 -19t-45 19t-19 45t19 45l275 275h-742q-26 0 -45 19t-19 45zM1152 832v512q0 39 15 74t41.5 61.5t61.5 41.5t74 15h512q39 0 74 -15 t61.5 -41.5t41.5 -61.5t15 -74v-512q0 -39 -15 -74t-41.5 -61.5t-61.5 -41.5t-74 -15h-512q-39 0 -74 15t-61.5 41.5t-41.5 61.5t-15 74zM1280 832q0 -26 19 -45t45 -19h512q26 0 45 19t19 45v512q0 26 -19 45t-45 19h-512q-26 0 -45 -19t-19 -45v-512z" />
<glyph unicode="&#xe141;" d="M0 0v91l550 549l-403 403q-19 19 -19 46q0 19 11 35t29 23l593 237q23 9 34 33l222 489q23 52 71 82.5t105 30.5q38 0 73.5 -15t61.5 -41l630 -631q27 -27 41.5 -63t14.5 -74q0 -58 -32 -106t-86 -70l-535 -223q-13 -5 -23 -15.5t-14 -24.5l-175 -582q-6 -20 -22.5 -33 t-38.5 -13q-26 0 -45 19l-403 403l-550 -550h-90zM306 1065l751 -752l144 479q12 41 41.5 73t68.5 49l536 224q18 8 28.5 23.5t10.5 35.5q0 27 -18 45l-631 630q-19 19 -44 19q-20 0 -35.5 -10t-23.5 -28l-222 -489q-15 -34 -42 -59.5t-62 -39.5z" />
<glyph unicode="&#xe718;" d="M0 0v91l550 549l-403 403q-19 19 -19 46q0 19 11 35t29 23l593 237q23 9 34 33l222 489q23 52 71 82.5t105 30.5q38 0 73.5 -15t61.5 -41l630 -631q27 -27 41.5 -63t14.5 -74q0 -58 -32 -106t-86 -70l-535 -223q-13 -5 -23 -15.5t-14 -24.5l-175 -582q-6 -20 -22.5 -33 t-38.5 -13q-26 0 -45 19l-403 403l-550 -550h-90zM306 1065l751 -752l144 479q12 41 41.5 73t68.5 49l536 224q18 8 28.5 23.5t10.5 35.5q0 27 -18 45l-631 630q-19 19 -44 19q-20 0 -35.5 -10t-23.5 -28l-222 -489q-15 -34 -42 -59.5t-62 -39.5z" />
<glyph unicode="&#xe142;" d="M0 576q0 26 19 45t45 19h960q26 0 45 -19t19 -45t-19 -45t-45 -19h-960q-26 0 -45 19t-19 45zM0 1088q0 26 19 45t45 19h960q26 0 45 -19t19 -45t-19 -45t-45 -19h-960q-26 0 -45 19t-19 45zM0 1600q0 26 19 45t45 19h1920q26 0 45 -19t19 -45t-19 -45t-45 -19h-1920 q-26 0 -45 19t-19 45zM1024 192q0 39 15 74t41.5 61.5t61.5 41.5t74 15q31 0 64 -11v567q0 31 20.5 56t50.5 31l592 118q5 1 9 1.5t9 0.5q18 0 34 -7t27.5 -19t18.5 -28t7 -34v-739q0 -39 -15 -74t-41.5 -61.5t-61.5 -41.5t-74 -15t-74 15t-61.5 41.5t-41.5 61.5t-15 74 t15 74t41.5 61.5t61.5 41.5t74 15q31 0 64 -11v317l-512 -102v-524q0 -39 -15 -74t-41.5 -61.5t-61.5 -41.5t-74 -15t-74 15t-61.5 41.5t-41.5 61.5t-15 74z" />
<glyph unicode="&#xe143;" d="M128 192q0 26 19 45l1555 1555h-998q-26 0 -45 19t-19 45t19 45t45 19h1152q26 0 45 -19t19 -45v-1152q0 -26 -19 -45t-45 -19t-45 19t-19 45v998l-1555 -1555q-19 -19 -45 -19t-45 19t-19 45z" />
<glyph unicode="&#xe144;" d="M0 635v906q0 50 20.5 95.5t55 80t80 55t95.5 20.5h1546q50 0 95.5 -20.5t80 -55t55 -80t20.5 -95.5v-906q0 -50 -20.5 -95.5t-55 -80t-80 -55t-95.5 -20.5h-1546q-50 0 -95.5 20.5t-80 55t-55 80t-20.5 95.5zM128 640q0 -27 10 -50.5t27 -40.5t40.5 -27t50.5 -10h1536 q27 0 50 10t40.5 27.5t27.5 40.5t10 50v896q0 26 -10 49.5t-27.5 41t-41 27.5t-49.5 10h-1536q-27 0 -50 -10t-40.5 -27.5t-27.5 -40.5t-10 -50v-896zM320 1376q0 40 28 68t68 28t68 -28t28 -68t-28 -68t-68 -28t-68 28t-28 68zM384 704q0 26 19 45t45 19h1152q26 0 45 -19 t19 -45t-19 -45t-45 -19h-1152q-26 0 -45 19t-19 45zM576 992q0 40 28 68t68 28t68 -28t28 -68t-28 -68t-68 -28t-68 28t-28 68zM704 1376q0 40 28 68t68 28t68 -28t28 -68t-28 -68t-68 -28t-68 28t-28 68zM960 992q0 40 28 68t68 28t68 -28t28 -68t-28 -68t-68 -28t-68 28 t-28 68zM1088 1376q0 40 28 68t68 28t68 -28t28 -68t-28 -68t-68 -28t-68 28t-28 68zM1344 992q0 40 28 68t68 28t68 -28t28 -68t-28 -68t-68 -28t-68 28t-28 68zM1472 1376q0 40 28 68t68 28t68 -28t28 -68t-28 -68t-68 -28t-68 28t-28 68z" />
<glyph unicode="&#xe145;" d="M0 507v1034q0 50 20.5 95.5t55 80t80 55t95.5 20.5h1546q50 0 95.5 -20.5t80 -55t55 -80t20.5 -95.5v-1034q0 -50 -20.5 -95.5t-55 -80t-80 -55t-95.5 -20.5h-1546q-50 0 -95.5 20.5t-80 55t-55 80t-20.5 95.5zM128 512q0 -27 10 -50.5t27 -40.5t40.5 -27t50.5 -10h384 v1280h-384q-27 0 -50 -10t-40.5 -27.5t-27.5 -40.5t-10 -50v-1024zM768 384h1024q27 0 50 10t40.5 27.5t27.5 40.5t10 50v1024q0 26 -10 49.5t-27.5 41t-41 27.5t-49.5 10h-1024v-1280z" />
<glyph unicode="&#xe90c;" d="M0 507v1034q0 50 20.5 95.5t55 80t80 55t95.5 20.5h1546q50 0 95.5 -20.5t80 -55t55 -80t20.5 -95.5v-1034q0 -50 -20.5 -95.5t-55 -80t-80 -55t-95.5 -20.5h-1546q-50 0 -95.5 20.5t-80 55t-55 80t-20.5 95.5zM128 512q0 -27 10 -50.5t27 -40.5t40.5 -27t50.5 -10h384 v1280h-384q-27 0 -50 -10t-40.5 -27.5t-27.5 -40.5t-10 -50v-1024zM768 384h1024q27 0 50 10t40.5 27.5t27.5 40.5t10 50v1024q0 26 -10 49.5t-27.5 41t-41 27.5t-49.5 10h-1024v-1280z" />
<glyph unicode="&#xe1ac;" d="M0 507v1034q0 50 20.5 95.5t55 80t80 55t95.5 20.5h1546q50 0 95.5 -20.5t80 -55t55 -80t20.5 -95.5v-1034q0 -50 -20.5 -95.5t-55 -80t-80 -55t-95.5 -20.5h-1546q-50 0 -95.5 20.5t-80 55t-55 80t-20.5 95.5zM128 512q0 -27 10 -50.5t27 -40.5t40.5 -27t50.5 -10h384 v1280h-384q-27 0 -50 -10t-40.5 -27.5t-27.5 -40.5t-10 -50v-1024zM768 384h1024q27 0 50 10t40.5 27.5t27.5 40.5t10 50v1024q0 26 -10 49.5t-27.5 41t-41 27.5t-49.5 10h-1024v-1280z" />
<glyph unicode="&#xe146;" d="M0 507v1034q0 50 20.5 95.5t55 80t80 55t95.5 20.5h1546q50 0 95.5 -20.5t80 -55t55 -80t20.5 -95.5v-1034q0 -50 -20.5 -95.5t-55 -80t-80 -55t-95.5 -20.5h-1546q-50 0 -95.5 20.5t-80 55t-55 80t-20.5 95.5zM128 512q0 -27 10 -50.5t27 -40.5t40.5 -27t50.5 -10h1024 v1280h-1024q-27 0 -50 -10t-40.5 -27.5t-27.5 -40.5t-10 -50v-1024zM1408 384h384q27 0 50 10t40.5 27.5t27.5 40.5t10 50v1024q0 26 -10 49.5t-27.5 41t-41 27.5t-49.5 10h-384v-1280z" />
<glyph unicode="&#xe90d;" d="M0 507v1034q0 50 20.5 95.5t55 80t80 55t95.5 20.5h1546q50 0 95.5 -20.5t80 -55t55 -80t20.5 -95.5v-1034q0 -50 -20.5 -95.5t-55 -80t-80 -55t-95.5 -20.5h-1546q-50 0 -95.5 20.5t-80 55t-55 80t-20.5 95.5zM128 512q0 -27 10 -50.5t27 -40.5t40.5 -27t50.5 -10h1024 v1280h-1024q-27 0 -50 -10t-40.5 -27.5t-27.5 -40.5t-10 -50v-1024zM1408 384h384q27 0 50 10t40.5 27.5t27.5 40.5t10 50v1024q0 26 -10 49.5t-27.5 41t-41 27.5t-49.5 10h-384v-1280z" />
<glyph unicode="&#xe1ab;" d="M0 507v1034q0 50 20.5 95.5t55 80t80 55t95.5 20.5h1546q50 0 95.5 -20.5t80 -55t55 -80t20.5 -95.5v-1034q0 -50 -20.5 -95.5t-55 -80t-80 -55t-95.5 -20.5h-1546q-50 0 -95.5 20.5t-80 55t-55 80t-20.5 95.5zM128 512q0 -27 10 -50.5t27 -40.5t40.5 -27t50.5 -10h1024 v1280h-1024q-27 0 -50 -10t-40.5 -27.5t-27.5 -40.5t-10 -50v-1024zM1408 384h384q27 0 50 10t40.5 27.5t27.5 40.5t10 50v1024q0 26 -10 49.5t-27.5 41t-41 27.5t-49.5 10h-384v-1280z" />
<glyph unicode="&#xe147;" d="M0 507v1034q0 50 20.5 95.5t55 80t80 55t95.5 20.5h1546q50 0 95.5 -20.5t80 -55t55 -80t20.5 -95.5v-1034q0 -50 -20.5 -95.5t-55 -80t-80 -55t-95.5 -20.5h-1546q-50 0 -95.5 20.5t-80 55t-55 80t-20.5 95.5zM128 512q0 -27 10 -50.5t27 -40.5t40.5 -27t50.5 -10h1536 q27 0 50 10t40.5 27.5t27.5 40.5t10 50v256h-1792v-256zM128 896h1792v640q0 26 -10 49.5t-27.5 41t-41 27.5t-49.5 10h-1536q-27 0 -50 -10t-40.5 -27.5t-27.5 -40.5t-10 -50v-640z" />
<glyph unicode="&#xe148;" d="M256 64q0 26 19 45l594 595l-594 595q-19 19 -19 45t19 45t45 19t45 -19l640 -640q19 -19 19 -45t-19 -45l-640 -640q-19 -19 -45 -19t-45 19t-19 45zM1024 1344q0 26 19 45l640 640q19 19 45 19t45 -19t19 -45t-19 -45l-594 -595l594 -595q19 -19 19 -45t-19 -45 t-45 -19t-45 19l-640 640q-19 19 -19 45z" />
<glyph unicode="&#xe149;" d="M0 1024q0 142 36.5 273t103 244.5t160 207t207 160t244.5 103t273 36.5q111 0 217 -23.5t204 -67.5t185.5 -109t161.5 -147v283q0 26 19 45t45 19t45 -19t19 -45q0 -121 0.5 -241t0.5 -241q0 -17 -2 -33.5t-9 -30t-20 -22t-34 -8.5h-512q-26 0 -45 19t-19 45t19 45t45 19 h415q-63 90 -144.5 161t-176.5 120.5t-200 76t-214 26.5q-124 0 -238.5 -32t-214 -90.5t-181 -140t-140 -181t-90.5 -214t-32 -238.5t32 -238.5t90 -214t140 -181.5t181.5 -140t214 -90t238.5 -32q121 0 234.5 30.5t213 88t183 140.5t144.5 187q62 106 91.5 217t29.5 233 q0 26 19 45t45 19t45 -19t19 -45q0 -142 -36.5 -273t-103 -244.5t-160 -207t-207 -160t-244.5 -103t-273 -36.5t-273 36.5t-245 103t-207 159.5t-159.5 207t-103 245t-36.5 273z" />
<glyph unicode="&#xe14a;" d="M0 1024q0 147 35 280.5t99.5 247t156.5 205.5t205.5 156.5t247 99.5t280.5 35t280.5 -35t247 -99.5t205.5 -156.5t156.5 -205.5t99.5 -247t35 -280.5q0 -145 -33 -278.5t-99.5 -249t-166 -209.5t-232.5 -159h339q26 0 45 -19t19 -45t-19 -45t-45 -19h-512q-26 0 -45 19 t-19 45v512q0 26 19 45t45 19t45 -19t19 -45v-357q128 54 224 135t160 184.5t96 226t32 259.5q0 195 -67 359t-186.5 283.5t-283.5 186.5t-359 67q-123 0 -238 -28t-215.5 -83t-184 -137t-144.5 -191q-60 -106 -87 -221t-27 -236q0 -26 -19 -45t-45 -19t-45 19t-19 45z M768 1029q0 52 21 97.5t56 79.5t81.5 54t97.5 20q52 0 99 -20.5t81.5 -55t55 -81.5t20.5 -99q0 -53 -20.5 -99.5t-55 -81t-81.5 -55t-99 -20.5q-54 0 -101 20.5t-81.5 56t-54 83t-19.5 101.5zM896 1024q0 -27 10 -50.5t27 -40.5t40.5 -27t50.5 -10t50 10t40.5 27.5 t27.5 40.5t10 50q0 26 -10 49.5t-27.5 41t-41 27.5t-49.5 10q-27 0 -50 -10t-40.5 -27.5t-27.5 -40.5t-10 -50z" />
<glyph unicode="&#xe14b;" d="M0 576q0 26 19 45t45 19q47 0 94 12t91 28q74 26 147 64t143 83t135.5 95.5t124.5 101.5q-93 81 -193 152t-211 127q-34 17 -75.5 35.5t-85.5 34t-88 25.5t-82 10q-26 0 -45 19t-19 45t19 45t45 19q67 0 140.5 -19.5t149.5 -52t151.5 -75.5t145.5 -90.5t131.5 -96 t110.5 -91.5q52 53 108 102.5t116 93t125 79t136 61.5q109 39 223 62t230 26l-148 148q-19 19 -19 45t19 45t45 19t45 -19l256 -256q19 -19 19 -45t-19 -45l-256 -256q-19 -19 -45 -19t-45 19t-19 45t19 45l146 146q-105 -3 -207 -24t-201 -57q-121 -45 -223 -119t-193 -164 q-89 -88 -182 -167.5t-199 -145.5q-56 -35 -125 -73.5t-143.5 -70.5t-149.5 -53t-142 -21q-26 0 -45 19t-19 45zM1010 827q24 22 47.5 43.5t46.5 44.5q81 -68 165 -118t173 -83.5t185.5 -51t201.5 -21.5l-146 146q-19 19 -19 45t19 45t45 19t45 -19l256 -256q19 -19 19 -45 t-19 -45l-256 -256q-19 -19 -45 -19t-45 19t-19 45t19 45l148 148q-119 3 -228.5 23t-210.5 59t-196 97t-186 135z" />
<glyph unicode="&#xe14c;" d="M0 320q0 27 18.5 45.5t45.5 18.5h1280q26 0 45 -19t19 -45q0 -27 -18.5 -45.5t-45.5 -18.5h-1280q-26 0 -45 19t-19 45zM0 1087q0 27 18.5 45.5t45.5 18.5h1920q26 0 45 -19t19 -45q0 -27 -18.5 -45.5t-45.5 -18.5h-1920q-26 0 -45 19t-19 45zM0 1856q0 27 18.5 45.5 t45.5 18.5h1408q26 0 45 -19t19 -45t-19 -45t-45 -19h-1408q-26 0 -45 19t-19 45z" />
<glyph unicode="&#xe14d;" d="M128 379v906q0 53 20 97.5t54.5 77.5t80 52.5t96.5 23.5q11 1 22 1h22q23 0 45 -0.5t44 -0.5q0 106 40 199.5t109.5 163t163 109.5t199.5 40q102 0 195 -39.5t163.5 -108t112 -160t41.5 -194.5v-10h133q50 0 95.5 -20.5t80 -55t55 -80t20.5 -95.5v-906q0 -50 -20.5 -95.5 t-55 -80t-80 -55t-95.5 -20.5h-1290q-50 0 -95.5 20.5t-80 55t-55 80t-20.5 95.5zM256 384q0 -27 10 -50.5t27 -40.5t40.5 -27t50.5 -10h1280q27 0 50 10t40.5 27.5t27.5 40.5t10 50v896q0 26 -10 49t-28 41t-41 28t-49 10h-128v-192q0 -26 -19 -45t-45 -19t-45 19t-19 45 v192h-768v-192q0 -26 -19 -45t-45 -19t-45 19t-19 45v192h-128q-27 0 -50 -10t-40.5 -27.5t-27.5 -40.5t-10 -50v-896zM640 1536h768v8q0 78 -31 146.5t-83.5 119.5t-122.5 80.5t-147 29.5q-80 0 -149.5 -30t-122 -82.5t-82.5 -122.5t-30 -149z" />
<glyph unicode="&#xe14e;" d="M-1 289q0 17 2 34t8.5 30.5t19.5 22t35 8.5t35 -8.5t19 -22t7.5 -30.5t1.5 -33v-15q0 -148 148 -148l45 1q26 0 45 -19t19 -45t-19 -45t-45 -19h-69q-50 0 -95.5 20.5t-80 55t-55 80t-20.5 95.5zM0 640v256q0 26 19 45t45 19t45 -19t19 -45v-256q0 -26 -19 -45t-45 -19 t-45 19t-19 45zM0 1216v256q0 26 19 45t45 19t45 -19t19 -45v-256q0 -26 -19 -45t-45 -19t-45 19t-19 45zM0 1728v69q0 50 20.5 95.5t55 80t80 55t95.5 20.5l38 1q17 0 34 -2t30.5 -9t22 -19.5t8.5 -34.5q0 -23 -8.5 -35.5t-22 -18.5t-30.5 -7.5t-33 -1.5h-15 q-148 0 -148 -148l1 -45q0 -26 -19 -45t-45 -19t-45 19t-19 45zM256 448v256q0 39 15 74t41.5 61.5t61.5 41.5t74 15h256q39 0 74 -15t61.5 -41.5t41.5 -61.5t15 -74v-256q0 -39 -15 -74t-41.5 -61.5t-61.5 -41.5t-74 -15h-256q-39 0 -74 15t-61.5 41.5t-41.5 61.5t-15 74z M256 1344v256q0 39 15 74t41.5 61.5t61.5 41.5t74 15h256q39 0 74 -15t61.5 -41.5t41.5 -61.5t15 -74v-256q0 -39 -15 -74t-41.5 -61.5t-61.5 -41.5t-74 -15h-256q-39 0 -74 15t-61.5 41.5t-41.5 61.5t-15 74zM384 448q0 -26 19 -45t45 -19h256q26 0 45 19t19 45v256 q0 26 -19 45t-45 19h-256q-26 0 -45 -19t-19 -45v-256zM384 1344q0 -26 19 -45t45 -19h256q26 0 45 19t19 45v256q0 26 -19 45t-45 19h-256q-26 0 -45 -19t-19 -45v-256zM576 64q0 26 19 45t45 19h256q26 0 45 -19t19 -45t-19 -45t-45 -19h-256q-26 0 -45 19t-19 45z M576 1984q0 26 19 45t45 19h256q26 0 45 -19t19 -45t-19 -45t-45 -19h-256q-26 0 -45 19t-19 45zM1152 64q0 26 19 45t45 19h256q26 0 45 -19t19 -45t-19 -45t-45 -19h-256q-26 0 -45 19t-19 45zM1152 448v256q0 39 15 74t41.5 61.5t61.5 41.5t74 15h256q39 0 74 -15 t61.5 -41.5t41.5 -61.5t15 -74v-256q0 -39 -15 -74t-41.5 -61.5t-61.5 -41.5t-74 -15h-256q-39 0 -74 15t-61.5 41.5t-41.5 61.5t-15 74zM1152 1344v256q0 39 15 74t41.5 61.5t61.5 41.5t74 15h256q39 0 74 -15t61.5 -41.5t41.5 -61.5t15 -74v-256q0 -39 -15 -74 t-41.5 -61.5t-61.5 -41.5t-74 -15h-256q-39 0 -74 15t-61.5 41.5t-41.5 61.5t-15 74zM1152 1984q0 26 19 45t45 19h256q26 0 45 -19t19 -45t-19 -45t-45 -19h-256q-26 0 -45 19t-19 45zM1280 448q0 -26 19 -45t45 -19h256q26 0 45 19t19 45v256q0 26 -19 45t-45 19h-256 q-26 0 -45 -19t-19 -45v-256zM1280 1344q0 -26 19 -45t45 -19h256q26 0 45 19t19 45v256q0 26 -19 45t-45 19h-256q-26 0 -45 -19t-19 -45v-256zM1664 64q0 22 8.5 35t22 19t30 7.5t33.5 1.5h15q148 0 148 148l-1 45q0 26 19 45t45 19t45 -19t19 -45v-69q0 -50 -20.5 -95.5 t-55 -80t-80 -55t-95.5 -20.5l-38 -1q-17 0 -34 2t-30.5 8.5t-22 19.5t-8.5 35zM1664 1984q0 26 19 45t45 19h69q50 0 95.5 -20.5t80 -55t55 -80t20.5 -95.5l1 -38q0 -17 -2 -34t-9 -30.5t-19.5 -22t-34.5 -8.5q-23 0 -35.5 8.5t-18.5 21.5t-7.5 29.5t-1.5 33.5v16 q0 72 -38 110t-110 38l-45 -1q-26 0 -45 19t-19 45zM1920 640v256q0 26 19 45t45 19t45 -19t19 -45v-256q0 -26 -19 -45t-45 -19t-45 19t-19 45zM1920 1216v256q0 26 19 45t45 19t45 -19t19 -45v-256q0 -26 -19 -45t-45 -19t-45 19t-19 45z" />
<glyph unicode="&#xe14f;" d="M0 448v512q0 39 15 74t41.5 61.5t61.5 41.5t74 15h1024q39 0 74 -15t61.5 -41.5t41.5 -61.5t15 -74v-512q0 -39 -15 -74t-41.5 -61.5t-61.5 -41.5t-74 -15h-1024q-39 0 -74 15t-61.5 41.5t-41.5 61.5t-15 74zM0 1216v128q0 26 19 45t45 19t45 -19t19 -45v-128 q0 -26 -19 -45t-45 -19t-45 19t-19 45zM0 1600v128q0 26 19 45t45 19h128q26 0 45 -19t19 -45q0 -22 -8.5 -35t-22 -19.5t-31 -8t-34.5 -1.5h-32v-34q0 -17 -2 -34t-8.5 -30.5t-19.5 -21.5t-34 -8q-26 0 -45 19t-19 45zM128 448q0 -26 19 -45t45 -19h1024q26 0 45 19t19 45 v512q0 26 -19 45t-45 19h-1024q-26 0 -45 -19t-19 -45v-512zM384 1728q0 26 19 45t45 19h128q26 0 45 -19t19 -45t-19 -45t-45 -19h-128q-26 0 -45 19t-19 45zM768 1728q0 26 19 45t45 19h128q26 0 45 -19t19 -45v-128q0 -26 -19 -45t-45 -19q-22 0 -35 8.5t-19.5 22 t-8 30.5t-1.5 34v33h-34q-17 0 -34 2t-30.5 8.5t-21.5 19.5t-8 34zM896 1216v128q0 26 19 45t45 19t45 -19t19 -45v-128q0 -26 -19 -45t-45 -19t-45 19t-19 45zM1408 1472q0 26 19 45l128 128q19 19 45 19t45 -19t19 -45q0 -22 -12 -36.5t-26 -28.5q88 -3 165 -40.5t134 -99 t90 -141t33 -166.5q0 -90 -35 -171t-95 -142.5t-140 -98t-170 -36.5q-29 0 -50.5 16.5t-21.5 47.5t21 47.5t50 16.5q65 0 122 26t99.5 70t67 102t24.5 122q0 61 -22.5 117t-62 99.5t-93 71t-115.5 31.5q15 -14 26 -27t11 -36q0 -26 -19 -45t-45 -19t-45 19l-128 128 q-19 19 -19 45z" />
<glyph unicode="&#xe150;" d="M0 1088q0 26 19 45t45 19h1509l-466 467q-19 19 -19 45t19 45t45 19t45 -19l573 -573q11 -11 16.5 -22t5.5 -26t-5.5 -26t-16.5 -22l-573 -573q-19 -19 -45 -19t-45 19t-19 45t19 45l466 467h-1509q-26 0 -45 19t-19 45zM1920 448v1280q0 26 19 45t45 19t45 -19t19 -45 v-1280q0 -26 -19 -45t-45 -19t-45 19t-19 45z" />
<glyph unicode="&#xe151;" d="M0 1088q0 26 19 45t45 19h1126l-467 467q-19 19 -19 45t19 45t45 19t45 -19l576 -576q19 -19 19 -45t-19 -45l-576 -576q-19 -19 -45 -19t-45 19t-19 45t19 45l467 467h-1126q-26 0 -45 19t-19 45zM1088 512q0 26 19 45l531 531l-531 531q-19 19 -19 45t19 45t45 19 t45 -19l576 -576q19 -19 19 -45t-19 -45l-576 -576q-19 -19 -45 -19t-45 19t-19 45zM1920 448v1280q0 26 19 45t45 19t45 -19t19 -45v-1280q0 -26 -19 -45t-45 -19t-45 19t-19 45z" />
<glyph unicode="&#xe152;" d="M128 320v384q0 39 15 74t41.5 61.5t61.5 41.5t74 15h384q39 0 74 -15t61.5 -41.5t41.5 -61.5t15 -74v-384q0 -39 -15 -74t-41.5 -61.5t-61.5 -41.5t-74 -15h-384q-39 0 -74 15t-61.5 41.5t-41.5 61.5t-15 74zM256 320q0 -26 19 -45t45 -19h384q26 0 45 19t19 45v384 q0 26 -19 45t-45 19h-384q-26 0 -45 -19t-19 -45v-384zM1152 320v384q0 39 15 74t41.5 61.5t61.5 41.5t74 15h384q39 0 74 -15t61.5 -41.5t41.5 -61.5t15 -74v-384q0 -39 -15 -74t-41.5 -61.5t-61.5 -41.5t-74 -15h-384q-39 0 -74 15t-61.5 41.5t-41.5 61.5t-15 74z M1152 1344v384q0 39 15 74t41.5 61.5t61.5 41.5t74 15h384q39 0 74 -15t61.5 -41.5t41.5 -61.5t15 -74v-384q0 -39 -15 -74t-41.5 -61.5t-61.5 -41.5t-74 -15h-384q-39 0 -74 15t-61.5 41.5t-41.5 61.5t-15 74zM1280 320q0 -26 19 -45t45 -19h384q26 0 45 19t19 45v384 q0 26 -19 45t-45 19h-384q-26 0 -45 -19t-19 -45v-384zM1280 1344q0 -26 19 -45t45 -19h384q26 0 45 19t19 45v384q0 26 -19 45t-45 19h-384q-26 0 -45 -19t-19 -45v-384z" />
<glyph unicode="&#xe153;" d="M128 1344v384q0 39 15 74t41.5 61.5t61.5 41.5t74 15h384q39 0 74 -15t61.5 -41.5t41.5 -61.5t15 -74v-384q0 -39 -15 -74t-41.5 -61.5t-61.5 -41.5t-74 -15h-384q-39 0 -74 15t-61.5 41.5t-41.5 61.5t-15 74zM256 1344q0 -26 19 -45t45 -19h384q26 0 45 19t19 45v384 q0 26 -19 45t-45 19h-384q-26 0 -45 -19t-19 -45v-384z" />
<glyph unicode="&#xe155;" d="M0 704q0 92 35.5 173.5t96.5 142.5t142.5 96.5t173.5 35.5q90 0 171 -35t142.5 -95t98 -140t36.5 -170q0 -76 -21.5 -145.5t-68.5 -130.5l327 -327q19 -19 19 -45t-19 -45t-45 -19t-45 19l-327 327q-61 -47 -130.5 -68.5t-145.5 -21.5q-90 0 -170 36.5t-140 98t-95 142.5 t-35 171zM128 704q0 -69 25.5 -127.5t70 -101.5t104 -67t127.5 -24q65 0 122 26t99.5 70t67 102t24.5 122q0 67 -25 125t-68.5 101.5t-101.5 68.5t-125 25t-125 -25t-101.5 -68.5t-68.5 -101.5t-25 -125zM128 1221v323q0 75 30.5 143.5t82 120t120 82t143.5 30.5h784 q75 0 143.5 -30.5t120 -82t82 -120t30.5 -143.5v-784q0 -75 -30.5 -143.5t-82 -120t-120 -82t-143.5 -30.5h-203l-79 79l19 49h255q71 0 130 35l-409 409q-23 51 -54.5 96t-70.5 84q5 0 9.5 0.5t9.5 0.5q51 0 98.5 -20t83.5 -56l424 -423q35 59 35 130v773q0 50 -20.5 95.5 t-55 80t-80 55t-95.5 20.5h-778q-52 0 -97.5 -21t-79.5 -56t-54 -81.5t-20 -97.5v-255q-34 -11 -66 -25.5t-62 -34.5zM1088 1472q0 27 10 50t27.5 40.5t40.5 27.5t50 10q26 0 49.5 -10t41 -27.5t27.5 -41t10 -49.5q0 -27 -10 -50t-27.5 -40.5t-40.5 -27.5t-50 -10t-50.5 10 t-40.5 27t-27 40.5t-10 50.5zM1213 256h138q91 0 171.5 36t140.5 97.5t94.5 142.5t34.5 172v862q62 -54 95 -129t33 -157v-576q0 -77 -20 -150t-57.5 -137.5t-90.5 -118.5t-120 -93q-41 -23 -80 -38t-79 -23.5t-82 -12t-88 -3.5q-14 43 -36.5 70t-53.5 58z" />
<glyph unicode="&#xe156;" d="M0 448v1152q0 39 15 74t41.5 61.5t61.5 41.5t74 15h1664q39 0 74 -15t61.5 -41.5t41.5 -61.5t15 -74v-1152q0 -39 -15 -74t-41.5 -61.5t-61.5 -41.5t-74 -15h-1664q-39 0 -74 15t-61.5 41.5t-41.5 61.5t-15 74zM128 448q0 -26 19 -45t45 -19h320v192q0 39 15 74 t41.5 61.5t61.5 41.5t74 15h640q39 0 74 -15t61.5 -41.5t41.5 -61.5t15 -74v-192h320q26 0 45 19t19 45v1152q0 26 -19 45t-45 19h-1664q-26 0 -45 -19t-19 -45v-1152zM640 384h768v192q0 26 -19 45t-45 19h-640q-26 0 -45 -19t-19 -45v-192zM704 1223q0 65 26 122t70 99.5 t102 67t122 24.5q67 0 125 -25t101.5 -68.5t68.5 -101.5t25 -125t-25 -125t-68.5 -101.5t-101.5 -68.5t-125 -25q-69 0 -127.5 25.5t-101.5 70t-67 104t-24 127.5zM832 1216q0 -39 15 -74t41.5 -61.5t61.5 -41.5t74 -15t74 15t61.5 41.5t41.5 61.5t15 74t-15 74t-41.5 61.5 t-61.5 41.5t-74 15t-74 -15t-61.5 -41.5t-41.5 -61.5t-15 -74z" />
<glyph unicode="&#xe158;" d="M128 635v1034q0 50 20.5 95.5t55 80t80 55t95.5 20.5h1034q50 0 95.5 -20.5t80 -55t55 -80t20.5 -95.5v-1034q0 -50 -20.5 -95.5t-55 -80t-80 -55t-95.5 -20.5h-1034q-50 0 -95.5 20.5t-80 55t-55 80t-20.5 95.5zM256 640q0 -8 1 -17t3 -17l455 456q35 35 83 53.5 t98 18.5q51 0 98.5 -18t82.5 -54l455 -456q2 8 3 17t1 17v1024q0 26 -10 49.5t-27.5 41t-41 27.5t-49.5 10h-1024q-27 0 -50 -10t-40.5 -27.5t-27.5 -40.5t-10 -50v-1024zM350 516q8 -2 17 -3t17 -1h1024q8 0 17 1t17 3l-455 455q-18 18 -42 27t-49 9t-48.5 -9t-41.5 -27z M418 256h1123q52 0 97.5 21t79.5 56t54 81.5t20 97.5v1118q60 -34 94 -93.5t34 -128.5v-904q0 -75 -30.5 -143.5t-82 -120t-120 -82t-143.5 -30.5h-904q-69 0 -128.5 34t-93.5 94zM1088 1472q0 27 10 50t27.5 40.5t40.5 27.5t50 10q26 0 49.5 -10t41 -27.5t27.5 -41 t10 -49.5q0 -27 -10 -50t-27.5 -40.5t-40.5 -27.5t-50 -10t-50.5 10t-40.5 27t-27 40.5t-10 50.5z" />
<glyph unicode="&#xe159;" d="M128 384v1280q0 53 20 99.5t55 81.5t81.5 55t99.5 20h1008q51 0 98 -19.5t83 -55.5l272 -272q36 -36 55.5 -83t19.5 -98v-232q-30 23 -62 42.5t-66 36.5v153q0 26 -9.5 49.5t-27.5 41.5l-272 272q-31 31 -75 36v-319q0 -40 -15 -75t-41 -61t-61 -41t-75 -15h-512 q-40 0 -75 15t-61 41t-41 61t-15 75v320h-128q-27 0 -50.5 -10t-40.5 -27t-27 -40.5t-10 -50.5v-1280q0 -27 10 -50.5t27 -40.5t40.5 -27t50.5 -10v576q0 40 15 75t41 61t61 41t75 15h312q-23 -30 -42.5 -62t-36.5 -66h-233q-26 0 -45 -19t-19 -45v-576h297q17 -34 36.5 -66 t42.5 -62h-504q-53 0 -99.5 20t-81.5 55t-55 81.5t-20 99.5zM640 1472q0 -26 19 -45t45 -19h512q26 0 45 19t19 45v320h-640v-320zM896 576q0 119 45.5 224t123.5 183t183 123.5t224 45.5q79 0 152.5 -20.5t137.5 -58t117 -90.5t90.5 -117t58 -137.5t20.5 -152.5 q0 -119 -45.5 -224t-123.5 -183t-183 -123.5t-224 -45.5q-120 0 -225 45t-183 123t-123 183t-45 225zM1144 576q0 -30 21 -51l256 -256q21 -21 51 -21t51 21l256 256q21 21 21 51t-21 51t-51 21t-51 -21l-141 -141v346q0 26 -19 45t-45 19t-45 -19t-19 -45v-346l-141 141 q-21 21 -51 21t-51 -21t-21 -51z" />
<glyph unicode="&#xe15a;" d="M256 192q0 27 10 50t27.5 40.5t40.5 27.5t50 10q26 0 49.5 -10t41 -27.5t27.5 -41t10 -49.5q0 -27 -10 -50t-27.5 -40.5t-40.5 -27.5t-50 -10t-50.5 10t-40.5 27t-27 40.5t-10 50.5zM256 888v784q0 75 30.5 143.5t82 120t120 82t143.5 30.5h784q75 0 143.5 -30.5t120 -82 t82 -120t30.5 -143.5v-784q0 -75 -30.5 -143.5t-82 -120t-120 -82t-143.5 -30.5h-784q-75 0 -143.5 30.5t-120 82t-82 120t-30.5 143.5zM384 896q0 -71 35 -130l424 423q36 36 83 55.5t98 19.5t98 -19.5t83 -55.5l424 -423q35 59 35 130v773q0 50 -20.5 95.5t-55 80t-80 55 t-95.5 20.5h-778q-50 0 -95.5 -20.5t-80 -55t-55 -80t-20.5 -95.5v-773zM510 675q59 -35 130 -35h768q71 0 130 35l-423 424q-18 18 -41.5 28t-49.5 10q-53 0 -91 -38zM640 192q0 26 19 45t45 19h896q26 0 45 -19t19 -45t-19 -45t-45 -19h-896q-26 0 -45 19t-19 45z M1216 1600q0 27 10 50t27.5 40.5t40.5 27.5t50 10q26 0 49.5 -10t41 -27.5t27.5 -41t10 -49.5q0 -27 -10 -50t-27.5 -40.5t-40.5 -27.5t-50 -10t-50.5 10t-40.5 27t-27 40.5t-10 50.5z" />
<glyph unicode="&#xe15b;" d="M128 379v1290q0 50 20.5 95.5t55 80t80 55t95.5 20.5h1290q50 0 95.5 -20.5t80 -55t55 -80t20.5 -95.5v-1290q0 -50 -20.5 -95.5t-55 -80t-80 -55t-95.5 -20.5h-1290q-50 0 -95.5 20.5t-80 55t-55 80t-20.5 95.5zM256 384q0 -27 10 -50.5t27 -40.5t40.5 -27t50.5 -10 h1280q27 0 50 10t40.5 27.5t27.5 40.5t10 50v1280q0 26 -10 49.5t-27.5 41t-41 27.5t-49.5 10h-1280q-27 0 -50 -10t-40.5 -27.5t-27.5 -40.5t-10 -50v-1280z" />
<glyph unicode="&#xe15c;" d="M0 704q0 27 10 50t27.5 40.5t40.5 27.5t50 10q26 0 49.5 -10t41 -27.5t27.5 -41t10 -49.5q0 -27 -10 -50t-27.5 -40.5t-40.5 -27.5t-50 -10t-50.5 10t-40.5 27t-27 40.5t-10 50.5zM0 1728q0 27 10 50t27.5 40.5t40.5 27.5t50 10q26 0 49.5 -10t41 -27.5t27.5 -41 t10 -49.5q0 -27 -10 -50t-27.5 -40.5t-40.5 -27.5t-50 -10t-50.5 10t-40.5 27t-27 40.5t-10 50.5zM512 320q0 26 19 45t45 19h1408q26 0 45 -19t19 -45t-19 -45t-45 -19h-1408q-26 0 -45 19t-19 45zM512 704q0 26 19 45t45 19h1408q26 0 45 -19t19 -45t-19 -45t-45 -19 h-1408q-26 0 -45 19t-19 45zM512 1344q0 26 19 45t45 19h1408q26 0 45 -19t19 -45t-19 -45t-45 -19h-1408q-26 0 -45 19t-19 45zM512 1728q0 26 19 45t45 19h1408q26 0 45 -19t19 -45t-19 -45t-45 -19h-1408q-26 0 -45 19t-19 45z" />
<glyph unicode="&#xe15d;" d="M0 832v384q0 39 15 74t41.5 61.5t61.5 41.5t74 15h230l310 311q14 14 31.5 20.5t36.5 6.5q41 0 68.5 -27t27.5 -68v-1254q0 -20 -7.5 -37t-21 -30.5t-31 -21t-36.5 -7.5q-40 0 -68 28l-310 311h-230q-39 0 -74 15t-61.5 41.5t-41.5 61.5t-15 74zM128 832q0 -26 19 -45 t45 -19h256q26 0 45 -19l275 -274v1099l-275 -275q-19 -19 -45 -19h-256q-26 0 -45 -19t-19 -45v-384zM1036 699q0 14 3.5 22t11.5 19q23 35 42 67.5t32 66t20 70t7 80.5q0 43 -7 80t-20 70.5t-32 66t-42 67.5q-8 11 -11.5 19t-3.5 22q0 26 19 45t45 19q17 0 28 -6t22 -18 q32 -35 56 -78.5t40.5 -92t25 -98.5t8.5 -96q0 -44 -8.5 -94.5t-25 -100t-41 -94t-55.5 -76.5q-21 -23 -50 -23q-26 0 -45 18.5t-19 44.5zM1284 455q0 17 5.5 26t16.5 22q55 62 98 119t72 117.5t44.5 129.5t15.5 155t-15.5 155t-44.5 129.5t-72 117.5t-98 119 q-11 13 -16.5 22t-5.5 26q0 26 19.5 44.5t45.5 18.5q15 0 23 -3.5t20 -12.5q30 -23 59.5 -56.5t56 -71.5t48.5 -77.5t37 -74.5q71 -160 71 -336t-71 -336q-14 -32 -36.5 -72.5t-49.5 -80t-56.5 -73.5t-58.5 -54q-11 -7 -20.5 -11.5t-22.5 -4.5q-26 0 -45.5 18.5t-19.5 44.5z M1536 225q0 17 6.5 27.5t17.5 22.5q14 14 30 26.5t31 26.5q72 66 128 146.5t94 170.5t57.5 186t19.5 193q0 96 -19.5 192.5t-58 187t-94 171.5t-127.5 146q-15 14 -31 26.5t-30 26.5q-12 12 -18 22t-6 28q0 27 18.5 45t45.5 18q12 0 21 -3.5t19 -10.5q45 -29 89 -74 t83.5 -96.5t72.5 -105.5t56 -102q53 -111 80 -229.5t27 -241.5q0 -122 -27 -241.5t-80 -229.5q-23 -47 -56 -101.5t-73 -106t-84 -96.5t-88 -74q-11 -7 -19.5 -10.5t-20.5 -3.5q-26 0 -45 19t-19 45z" />
<glyph unicode="&#xe767;" d="M0 832v384q0 39 15 74t41.5 61.5t61.5 41.5t74 15h230l310 311q14 14 31.5 20.5t36.5 6.5q41 0 68.5 -27t27.5 -68v-1254q0 -20 -7.5 -37t-21 -30.5t-31 -21t-36.5 -7.5q-40 0 -68 28l-310 311h-230q-39 0 -74 15t-61.5 41.5t-41.5 61.5t-15 74zM128 832q0 -26 19 -45 t45 -19h256q26 0 45 -19l275 -274v1099l-275 -275q-19 -19 -45 -19h-256q-26 0 -45 -19t-19 -45v-384zM1036 699q0 14 3.5 22t11.5 19q23 35 42 67.5t32 66t20 70t7 80.5q0 43 -7 80t-20 70.5t-32 66t-42 67.5q-8 11 -11.5 19t-3.5 22q0 26 19 45t45 19q17 0 28 -6t22 -18 q32 -35 56 -78.5t40.5 -92t25 -98.5t8.5 -96q0 -44 -8.5 -94.5t-25 -100t-41 -94t-55.5 -76.5q-21 -23 -50 -23q-26 0 -45 18.5t-19 44.5zM1284 455q0 17 5.5 26t16.5 22q55 62 98 119t72 117.5t44.5 129.5t15.5 155t-15.5 155t-44.5 129.5t-72 117.5t-98 119 q-11 13 -16.5 22t-5.5 26q0 26 19.5 44.5t45.5 18.5q15 0 23 -3.5t20 -12.5q30 -23 59.5 -56.5t56 -71.5t48.5 -77.5t37 -74.5q71 -160 71 -336t-71 -336q-14 -32 -36.5 -72.5t-49.5 -80t-56.5 -73.5t-58.5 -54q-11 -7 -20.5 -11.5t-22.5 -4.5q-26 0 -45.5 18.5t-19.5 44.5z M1536 225q0 17 6.5 27.5t17.5 22.5q14 14 30 26.5t31 26.5q72 66 128 146.5t94 170.5t57.5 186t19.5 193q0 96 -19.5 192.5t-58 187t-94 171.5t-127.5 146q-15 14 -31 26.5t-30 26.5q-12 12 -18 22t-6 28q0 27 18.5 45t45.5 18q12 0 21 -3.5t19 -10.5q45 -29 89 -74 t83.5 -96.5t72.5 -105.5t56 -102q53 -111 80 -229.5t27 -241.5q0 -122 -27 -241.5t-80 -229.5q-23 -47 -56 -101.5t-73 -106t-84 -96.5t-88 -74q-11 -7 -19.5 -10.5t-20.5 -3.5q-26 0 -45 19t-19 45z" />
<glyph unicode="&#xe15e;" d="M0 336q0 68 25.5 129t73.5 109l688 688q-8 35 -13.5 71.5t-5.5 73.5q0 89 23 171t64.5 153t99.5 129.5t129 100t153 64.5t171 23q18 0 48.5 -3t66 -9t72.5 -16t66.5 -24t48.5 -33t19 -42q0 -26 -19 -45l-339 -340l165 -165l340 339q19 19 45 19q24 0 42.5 -19t32.5 -49 t24 -66.5t16 -72t9 -66t3 -48.5q0 -133 -50 -249.5t-137 -203.5t-203.5 -137t-249.5 -50q-37 0 -73.5 5.5t-72.5 13.5l-688 -689q-21 -21 -47 -39t-55.5 -31.5t-60 -21t-60.5 -7.5q-73 0 -137 24.5t-111.5 69t-75 106.5t-27.5 137zM128 336q0 -43 16.5 -80.5t45 -66t66 -45 t80.5 -16.5q42 0 80 16t67 45l715 715q19 19 46 19q10 0 19 -3q36 -11 72 -17.5t74 -6.5q106 0 199 40.5t162.5 110t109.5 162.5t40 199q0 37 -5.5 73t-16.5 71l-317 -317q-18 -18 -45 -18t-45 18l-256 256q-19 19 -19 45t19 45l317 317q-35 11 -71 16.5t-73 5.5 q-106 0 -199 -40.5t-162.5 -110t-110 -162.5t-40.5 -199q0 -38 6.5 -73.5t17.5 -71.5q3 -9 3 -19q0 -27 -19 -46l-715 -715q-29 -29 -45 -67t-16 -80z" />
</font>
</defs>
</svg>
